<?xml version="1.0" encoding="UTF-8" standalone="no" ?>
<!DOCTYPE svg PUBLIC "-//W3C//DTD SVG 1.1//EN" "http://www.w3.org/Graphics/SVG/1.1/DTD/svg11.dtd">
<svg xmlns="http://www.w3.org/2000/svg" xmlns:xlink="http://www.w3.org/1999/xlink" version="1.1" width="1280" height="1024" viewBox="0 0 1280 1024" xml:space="preserve">
<desc>Created with Fabric.js 5.3.0</desc>
<defs>
</defs>
<g transform="matrix(1 0 0 1 640 512)" id="background-logo"  >
<rect style="stroke: none; stroke-width: 0; stroke-dasharray: none; stroke-linecap: butt; stroke-dashoffset: 0; stroke-linejoin: miter; stroke-miterlimit: 4; fill: rgb(255,255,255); fill-opacity: 0; fill-rule: nonzero; opacity: 1;"  paint-order="stroke"  x="-640" y="-512" rx="0" ry="0" width="1280" height="1024" />
</g>
<g transform="matrix(1.9211538461538462 0 0 1.9211538461538462 640 382.17921365668235)" id="logo-logo"  >
<g style=""  paint-order="stroke"   >
		<g transform="matrix(0.3838823183919558 0 0 -0.3838823183919558 0 -27.071880140014628)"  >
<path style="stroke: none; stroke-width: 1; stroke-dasharray: none; stroke-linecap: butt; stroke-dashoffset: 0; stroke-linejoin: miter; stroke-miterlimit: 4; fill: rgb(184,36,36); fill-rule: nonzero; opacity: 1;"  paint-order="stroke"  transform=" translate(152.82049999999998, -74.25849999999997)" d="M 0 0 C 71.594 14.395 141.325 33.937 208.789 58.229 C 189.64299999999997 162.692 149.40699999999998 259.779 92.65499999999999 344.919 C 109.06699999999998 279.288 117.47199999999998 211.242 117.10799999999999 142.22699999999998 C 70.69299999999998 130.45399999999998 22.561999999999983 122.98599999999998 -26.837000000000003 120.27299999999997 C -17.555000000000003 106.11299999999997 -12.355000000000004 89.49199999999996 -12.355000000000004 71.29599999999996 C -22.435000000000002 118.75999999999996 -68.201 149.47899999999998 -115.604 141.33499999999998 C -127.705 139.28599999999997 -140.139 138.218 -152.82 138.20999999999998 C -165.50199999999998 138.218 -177.93599999999998 139.28599999999997 -190.036 141.33499999999998 C -237.44 149.47899999999998 -283.206 118.75999999999998 -293.286 71.29599999999998 C -293.286 89.49199999999998 -288.086 106.11299999999997 -278.804 120.27299999999997 C -328.203 122.98599999999996 -376.33399999999995 130.45399999999998 -422.74899999999997 142.22699999999998 C -423.11299999999994 211.24199999999996 -414.70799999999997 279.288 -398.296 344.919 C -455.048 259.779 -495.283 162.69199999999998 -514.43 58.228999999999985 C -446.96599999999995 33.93699999999998 -377.2339999999999 14.394999999999982 -305.64099999999996 -1.4210854715202004e-14 C -347.23999999999995 3.9359999999999857 -389.44899999999996 4.142999999999986 -431.787 0.3859999999999858 C -400.174 -43.67000000000001 -353.094 -75.86500000000002 -298.49299999999994 -88.28500000000003 C -291.13499999999993 -126.47700000000003 -277.97599999999994 -162.87800000000004 -259.99299999999994 -196.40200000000004 C -252.87999999999994 -170.04400000000004 -238.03299999999993 -146.86000000000004 -218.03599999999994 -129.44000000000005 C -243.36699999999993 -120.24500000000006 -262.5179999999999 -98.24100000000006 -267.76199999999994 -71.26700000000005 C -267.50499999999994 -68.49700000000006 -265.20099999999996 -66.32000000000005 -262.3639999999999 -66.32000000000005 C -259.3549999999999 -66.32000000000005 -256.91599999999994 -68.76000000000005 -256.91599999999994 -71.76900000000005 C -256.91599999999994 -73.57700000000006 -257.80699999999996 -75.16900000000005 -259.16399999999993 -76.15900000000005 C -250.46899999999994 -78.56300000000005 -241.01499999999993 -76.78800000000005 -233.74499999999992 -71.23600000000005 C -218.63799999999992 -79.01700000000005 -202.32899999999992 -84.79300000000005 -185.15199999999993 -88.15900000000005 C -219.64099999999993 -69.64400000000005 -247.55399999999992 -40.46700000000005 -264.47799999999995 -5.034000000000049 C -262.04699999999997 31.253999999999948 -253.52099999999996 65.86999999999995 -239.90899999999996 97.80399999999995 C -213.50699999999995 85.27699999999994 -183.98099999999997 78.26199999999994 -152.81999999999996 78.24199999999995 C -121.65899999999996 78.26199999999994 -92.13399999999996 85.27699999999994 -65.73199999999997 97.80399999999995 C -52.11899999999997 65.86999999999995 -43.593999999999966 31.253999999999948 -41.16299999999997 -5.034000000000049 C -58.08699999999997 -40.46700000000005 -85.99899999999997 -69.64400000000005 -120.48899999999996 -88.15900000000005 C -103.31199999999995 -84.79300000000005 -87.00299999999996 -79.01700000000005 -71.89599999999996 -71.23600000000005 C -64.62499999999996 -76.78800000000004 -55.17099999999996 -78.56300000000005 -46.47699999999996 -76.15900000000005 C -47.83299999999996 -75.16900000000005 -48.72499999999996 -73.57700000000006 -48.72499999999996 -71.76900000000005 C -48.72499999999996 -68.76000000000005 -46.28499999999996 -66.32000000000005 -43.27599999999996 -66.32000000000005 C -40.43899999999996 -66.32000000000005 -38.13599999999996 -68.49700000000006 -37.87899999999996 -71.26700000000005 C -43.12299999999996 -98.24100000000006 -62.27299999999996 -120.24500000000006 -87.60399999999996 -129.44000000000005 C -67.60699999999996 -146.86000000000007 -52.76099999999995 -170.04400000000004 -45.646999999999956 -196.40200000000004 C -27.664999999999957 -162.87800000000004 -14.505999999999958 -126.47700000000005 -7.146999999999956 -88.28500000000004 C 47.453000000000046 -75.86500000000004 94.53300000000004 -43.67000000000004 126.14600000000004 0.38599999999996726 C 83.809 4.143 41.6 3.936 0 0" stroke-linecap="round" />
</g>
		<g transform="matrix(0.3838823183919558 0 0 -0.3838823183919558 0.00011516469550088004 123.38968129498909)"  >
<path style="stroke: none; stroke-width: 1; stroke-dasharray: none; stroke-linecap: butt; stroke-dashoffset: 0; stroke-linejoin: miter; stroke-miterlimit: 4; fill: rgb(225,143,52); fill-rule: nonzero; opacity: 1;"  paint-order="stroke"  transform=" translate(-75.4015, 19.756)" d="M 0 0 C 0 -21.822 17.689 -39.512 39.511 -39.512 L 111.291 -39.512 C 133.113 -39.512 150.803 -21.822 150.803 0 z" stroke-linecap="round" />
</g>
		<g transform="matrix(0.3838823183919558 0 0 -0.3838823183919558 -0.00003838823187152229 73.86774896370343)"  >
<path style="stroke: none; stroke-width: 1; stroke-dasharray: none; stroke-linecap: butt; stroke-dashoffset: 0; stroke-linejoin: miter; stroke-miterlimit: 4; fill: rgb(225,143,52); fill-rule: nonzero; opacity: 1;"  paint-order="stroke"  transform=" translate(40.158500000000004, 3.2364999999999995)" d="M 0 0 C -2.321 -0.151 -4.444 0.89 -5.771 2.599 C -4.679 4.4670000000000005 -2.709 5.775 -0.38900000000000023 5.928000000000001 C 1.933 6.08 4.057 5.038 5.383 3.329 C 4.29 1.462 2.321 0.152 0 0 M -15.352 -20.694 C -17.073 -20.156 -18.318 -18.808999999999997 -18.8 -17.201999999999998 C -17.488 -16.156 -15.697000000000001 -15.758999999999999 -13.976 -16.298 C -12.254000000000001 -16.837 -11.009 -18.183999999999997 -10.527000000000001 -19.790999999999997 C -11.839 -20.836999999999996 -13.63 -21.232999999999997 -15.352 -20.693999999999996 M -24.112000000000002 11.852000000000004 C -25.919 12.934000000000005 -26.964000000000002 14.802000000000003 -27.072000000000003 16.757000000000005 C -25.298000000000002 17.586000000000006 -23.157000000000004 17.548000000000005 -21.351000000000003 16.466000000000005 C -19.544000000000004 15.385000000000005 -18.498 13.516000000000005 -18.391000000000002 11.561000000000003 C -20.165000000000003 10.732000000000003 -22.306 10.771000000000004 -24.112000000000002 11.852000000000004 M -46.633 -11.105999999999995 C -47.917 -12.975999999999996 -49.996 -13.974999999999994 -52.105000000000004 -13.958999999999994 C -52.877 -11.995999999999995 -52.69200000000001 -9.696999999999996 -51.408 -7.826999999999995 C -50.125 -5.957999999999995 -48.045 -4.958999999999994 -45.936 -4.974999999999994 C -45.165 -6.936999999999994 -45.35 -9.235999999999994 -46.633 -11.105999999999995 M -66.367 11.107000000000006 C -68.025 9.449000000000007 -70.327 8.827000000000007 -72.46900000000001 9.241000000000007 C -72.882 11.382000000000007 -72.26 13.685000000000006 -70.602 15.343000000000007 C -68.943 17.00100000000001 -66.64200000000001 17.623000000000008 -64.5 17.209000000000007 C -64.086 15.068000000000007 -64.708 12.766000000000007 -66.367 11.107000000000006 M -81.663 -18.66 C -83.819 -18.222 -85.497 -16.742 -86.282 -14.854 C -84.821 -13.421 -82.698 -12.716 -80.542 -13.154 C -78.386 -13.594 -76.708 -15.072 -75.922 -16.962 C -77.384 -18.395 -79.50699999999999 -19.1 -81.663 -18.66 M -14.14 28.078 L -66.17699999999999 28.078 C -93.44999999999999 28.078 -115.56 5.968999999999998 -115.56 -21.305000000000003 L -115.56 -34.551 L 35.243 -34.551 L 35.243 -21.305 C 35.243 5.969000000000001 13.134 28.078000000000003 -14.14 28.078000000000003" stroke-linecap="round" />
</g>
		<g transform="matrix(0.3838823183919558 0 0 -0.3838823183919558 -0.00007677646368620117 100.847267017913)"  >
<path style="stroke: none; stroke-width: 1; stroke-dasharray: none; stroke-linecap: butt; stroke-dashoffset: 0; stroke-linejoin: miter; stroke-miterlimit: 4; fill: rgb(184,36,36); fill-rule: nonzero; opacity: 1;"  paint-order="stroke"  transform=" translate(65.101, 19.856)" d="M 0 0 L 0 0 L -130.201 0 C -141.167 0 -150.058 -8.89 -150.058 -19.855 C -150.058 -30.822000000000003 -141.167 -39.712 -130.201 -39.712 L 0 -39.712 C 10.966 -39.712 19.856 -30.822000000000003 19.856 -19.855000000000004 C 19.856 -8.89 10.966 0 0 0" stroke-linecap="round" />
</g>
</g>
</g>
<g transform="matrix(1.9211538461538462 0 0 1.9211538461538462 639.477446153846 743.9987731915392)" id="text-logo"  >
<g style=""  paint-order="stroke"   >
		<g transform="matrix(1 0 0 1 5.684342e-14 0)" id="text-logo-path-0"  >
<path style="stroke: none; stroke-width: 0; stroke-dasharray: none; stroke-linecap: butt; stroke-dashoffset: 0; stroke-linejoin: miter; stroke-miterlimit: 4; fill: rgb(184,36,36); fill-rule: nonzero; opacity: 1;"  paint-order="stroke"  transform=" translate(-202.045, 21.855)" d="M 29.95 -43.78 L 21.06 -27.33 L 12.1 -43.78 L 0.06 -43.78 L 15.68 -14.85 L 15.68 0 L 26.37 0 L 26.37 -14.72 L 41.98 -43.78 Z M 79.68 -43.71 L 79.62 -43.78 L 68.16 -24.64 L 56.7 -43.78 L 46.02 -43.78 L 46.02 0 L 56.7 0 L 56.7 -24.26 L 66.88 -7.17 L 69.5 -7.17 L 79.68 -24.26 L 79.68 0 L 90.3 0 L 90.3 -43.78 L 79.68 -43.78 Z M 108.93 -10.05 L 108.93 -17.34 L 124.16 -17.34 L 124.16 -27.39 L 108.93 -27.39 L 108.93 -33.66 L 125.7 -33.66 L 125.7 -43.78 L 98.24 -43.78 L 98.24 0 L 126.02 0 L 126.02 -10.05 Z M 147.2 -14.08 L 155.07 0 L 167.23 0 L 158.08 -16.51 C 162.3 -19.26 164.74 -23.94 164.74 -28.93 C 164.74 -37.18 158.14 -43.78 149.95 -43.78 L 131.39 -43.78 L 131.39 0 L 142.08 0 L 142.08 -14.08 Z M 142.08 -24.19 L 142.08 -33.66 L 149.95 -33.66 C 152.64 -33.66 154.69 -31.62 154.69 -28.93 C 154.69 -26.37 152.51 -24.19 149.95 -24.19 Z M 171.46 -43.78 L 171.46 -35.78 L 173.95 -23.36 L 177.54 -23.36 L 180.03 -35.78 L 180.03 -43.78 Z M 200.32 0.9 C 208.45 0.9 216.32 -3.65 216.32 -12.42 C 216.32 -21.06 209.54 -24.64 202.18 -26.88 C 200.19 -27.52 198.72 -28.1 197.76 -28.54 C 196.42 -29.18 195.46 -29.89 195.46 -31.49 C 195.46 -33.34 197.82 -34.05 199.3 -34.05 C 202.75 -34.05 204.48 -32.51 205.95 -29.5 L 215.04 -34.82 C 211.9 -41.28 206.46 -44.61 199.3 -44.61 C 191.49 -44.61 184.83 -39.55 184.83 -31.49 C 184.83 -23.23 190.72 -19.97 197.82 -17.86 C 200.06 -17.22 201.66 -16.64 202.75 -16.19 C 204.22 -15.62 205.7 -14.85 205.7 -13.06 C 205.7 -10.69 202.5 -9.54 200.58 -9.54 C 196.42 -9.54 193.54 -11.14 191.94 -15.1 L 182.98 -9.86 C 185.86 -2.5 192.64 0.9 200.32 0.9 Z M 280.58 -20.1 L 280.58 -24.45 L 256.38 -24.45 L 256.38 -14.34 L 267.65 -14.34 C 265.41 -11.46 262.02 -9.79 258.37 -9.79 C 251.84 -9.79 246.4 -15.23 246.4 -21.7 C 246.4 -28.22 251.9 -33.6 258.37 -33.6 C 262.34 -33.6 265.47 -31.87 267.9 -28.74 L 276.22 -35.33 C 271.87 -40.96 265.54 -44.22 258.37 -44.22 C 245.82 -44.22 235.78 -34.11 235.78 -21.7 C 235.78 -9.22 246.02 0.9 258.37 0.9 C 270.02 0.9 280.58 -8.19 280.58 -20.1 Z M 302.34 -14.08 L 310.21 0 L 322.37 0 L 313.22 -16.51 C 317.44 -19.26 319.87 -23.94 319.87 -28.93 C 319.87 -37.18 313.28 -43.78 305.09 -43.78 L 286.53 -43.78 L 286.53 0 L 297.22 0 L 297.22 -14.08 Z M 297.22 -24.19 L 297.22 -33.66 L 305.09 -33.66 C 307.78 -33.66 309.82 -31.62 309.82 -28.93 C 309.82 -26.37 307.65 -24.19 305.09 -24.19 Z M 325.44 -43.78 L 325.44 0 L 336.13 0 L 336.13 -43.78 Z M 354.75 -10.05 L 354.75 -43.78 L 344.06 -43.78 L 344.06 0 L 371.71 0 L 371.71 -10.05 Z M 387.07 -10.05 L 387.07 -43.78 L 376.38 -43.78 L 376.38 0 L 404.03 0 L 404.03 -10.05 Z" stroke-linecap="round" />
</g>
</g>
</g>
</svg>