<svg width="3572" height="111" viewBox="0 0 3572 111" fill="none" xmlns="http://www.w3.org/2000/svg">
<path d="M16.9133 61.2469L15.9198 61.1946C9.74969 61.2643 5.09595 61.3515 1.95859 61.456L0.703646 60.358C0.703646 58.371 0.790795 55.9482 0.965093 53.0898L1.22654 39.8606L1.17425 38.2396L1.48799 32.5924V31.4943L1.38341 29.7687C1.38341 28.2349 1.54027 27.3111 1.85401 26.9974L3.78871 27.0497H10.6386L14.4034 26.9451C18.482 26.9451 20.835 27.1891 21.4625 27.6772L21.4102 27.8863L22.1422 59.0507C22.1422 59.9919 21.9331 60.602 21.5148 60.8809C21.0965 61.1249 20.2598 61.2469 19.0049 61.2469H16.9133ZM49.4372 27.5726C49.9601 37.7516 50.2216 45.8041 50.2216 51.7302C50.2216 57.6215 50.1867 60.6368 50.117 60.7763L43.6854 60.9854C40.6178 60.9854 37.2538 61.0726 33.5936 61.2469L30.1948 61.4038C29.4627 60.4277 29.0967 59.2773 29.0967 57.9527V54.6061L29.6196 39.39C29.6893 38.3442 29.7242 36.7058 29.7242 34.4748V30.2916L29.6719 29.5073C29.6719 28.0432 29.7591 27.1891 29.9334 26.9451H32.9661C44.0515 26.9451 49.5941 26.9103 49.5941 26.8405V27.1543C49.4895 27.1543 49.4372 27.2937 49.4372 27.5726ZM50.0124 60.7763L50.8491 61.2992C50.8491 61.6826 50.5702 61.8744 50.0124 61.8744V60.8286H49.9601L50.0124 60.7763ZM61.4136 48.6452L61.3613 47.5994V44.3575C61.3613 39.8606 61.4484 34.7014 61.6227 28.8798L61.5182 28.7752L64.3418 28.6184C73.4401 28.1303 79.3488 27.8863 82.0678 27.8863H106.435C114.766 27.8863 121.686 29.6119 127.193 33.063C129.146 34.7362 130.732 36.9847 131.952 39.8083C133.172 42.6319 133.782 45.8215 133.782 49.3772C133.782 56.2445 129.18 62.0835 119.978 66.8941C125.172 68.3234 129.146 70.6241 131.9 73.7963C134.688 76.9337 136.083 80.7856 136.083 85.3522C136.083 93.4396 132.457 99.5749 125.206 103.758C119.873 106.895 113.128 108.464 104.971 108.464L89.3883 108.255C82.6605 108.255 73.7364 108.412 62.6162 108.726C61.6402 106.669 61.1521 98.5291 61.1521 84.3065C61.1521 70.0838 61.2393 58.1967 61.4136 48.6452ZM93.9375 92.4113C102.966 92.4113 107.48 89.2565 107.48 82.9469C107.48 78.9381 106.26 76.2539 103.82 74.8944C101.624 73.7092 98.2601 73.0468 93.7284 72.9074H92.212L91.2708 75.8356C91.0267 79.4261 90.9047 82.9644 90.9047 86.4503C90.9047 89.9014 91.2708 91.8884 92.0028 92.4113H93.9375ZM105.18 57.4298C105.877 56.1051 106.225 54.5016 106.225 52.6192C106.225 48.9589 104.918 46.5013 102.304 45.2464C99.6893 43.9914 96.9529 43.364 94.0944 43.364C91.2359 43.364 89.8067 44.4097 89.8067 46.5013C89.8067 50.2313 89.8938 54.0484 90.0681 57.9527L90.1727 60.724C90.2424 62.0487 91.0093 62.833 92.4734 63.077L95.0356 62.7633C100.334 62.1358 103.716 60.358 105.18 57.4298ZM216.61 66.4758L216.453 81.1691C216.453 85.666 215.721 89.64 214.257 93.0911C212.828 96.5421 210.928 99.3309 208.558 101.457C202.109 107.314 192.575 110.242 179.955 110.242C167.336 110.242 157.523 107.174 150.517 101.039C148.042 98.9126 145.95 96.1587 144.242 92.7773C142.569 89.3611 141.558 85.5091 141.209 81.2214C141.383 66.6501 141.471 53.1769 141.471 40.8018C141.296 40.8018 141.209 38.9717 141.209 35.3114C141.209 31.6512 141.366 29.3853 141.68 28.5138H142.778C147.902 28.2349 154.891 28.0955 163.746 28.0955C164.373 28.2349 165.506 28.3221 167.145 28.3569C168.818 28.3918 169.968 28.4441 170.596 28.5138L172.217 28.723C172.461 35.6251 172.618 45.1244 172.687 57.2206L172.374 78.2409C172.374 85.2128 174.395 88.6988 178.439 88.6988C180.147 88.6988 181.576 87.9493 182.727 86.4503C183.912 84.9514 184.539 83.2607 184.609 81.3783L184.818 80.8554L184.975 63.2339L185.028 61.6652C185.028 53.5778 184.923 45.7693 184.714 38.2396L184.609 34.4225C184.539 32.8887 184.505 31.5117 184.505 30.2916C184.505 29.0716 184.696 28.2349 185.08 27.7818C198.536 27.7818 208.68 27.834 215.512 27.9386C215.756 28.1826 216.07 28.4092 216.453 28.6184H216.401L216.976 28.9844C216.697 35.5729 216.558 44.0437 216.558 54.397V63.3907L216.61 66.4758ZM224.142 35.8866L223.985 31.3897C223.985 29.4724 224.177 28.2872 224.56 27.834C225.502 27.7992 227.279 27.7818 229.894 27.7818C232.543 27.7818 234.826 27.7992 236.744 27.834L244.116 27.9386C245.476 27.834 247.446 27.7818 250.025 27.7818C252.605 27.7818 254.243 28.1303 254.94 28.8275C254.766 37.3333 254.679 47.4425 254.679 59.1553L256.509 59.4691C257.032 58.1095 257.973 56.0702 259.333 53.3512C260.727 50.6322 261.529 49.0461 261.738 48.5929L262.313 47.3379C262.453 47.0242 263.08 45.6821 264.196 43.3117C265.346 40.9064 266.514 38.2222 267.699 35.2591C268.884 32.2612 270.157 29.9082 271.516 28.2001C273.956 28.1652 276.919 28.1478 280.405 28.1478C283.926 28.1478 288.022 28.2175 292.693 28.3569C297.364 28.4615 300.868 28.5138 303.203 28.5138C293.268 46.4665 286.209 58.8939 282.026 65.7961L283.229 67.7308C284.658 69.5086 287.778 74.5807 292.589 82.9469C297.399 91.3132 300.885 97.2568 303.047 100.778L304.301 102.817C305.835 105.362 306.602 106.808 306.602 107.157C306.602 107.505 306.498 107.819 306.288 108.098H305.975C304.023 108.028 302.436 107.993 301.216 107.993C300.031 107.993 298.462 108.028 296.51 108.098H273.032C267.664 98.0585 262.087 87.1649 256.3 75.4173C256.021 78.206 255.603 84.7945 255.045 95.1826V95.8624L255.15 107.732C254.731 108.36 252.901 108.673 249.659 108.673L248.561 108.621H245.737L230.94 108.726H226.129C225.153 108.726 224.456 108.36 224.037 107.627L223.881 107.471V99.5226L223.985 91.3132V61.7698L224.142 35.8866ZM390.79 107.575C390.755 108.028 389.796 108.255 387.914 108.255H383.103L379.862 108.307H376.672L371.6 108.36C366.545 108.36 362.345 108.238 358.998 107.993C358.894 107.959 358.772 107.749 358.632 107.366L358.371 106.268C358.057 102.677 357.238 99.2089 355.913 95.8624L333.533 96.0715C333.394 96.6642 332.941 98.4246 332.174 101.353C331.407 104.281 330.832 106.495 330.448 107.993C330.1 108.342 328.444 108.516 325.481 108.516L324.173 108.464H321.141L307.545 108.778H305.977L304.513 108.83H300.852C300.608 108.586 300.347 108.272 300.068 107.889C303.554 95.8275 308.278 80.8728 314.238 63.0247L315.441 59.3122H315.389L316.801 54.9722C317.254 53.5778 318.544 49.7084 320.67 43.364C322.831 37.0195 324.173 32.9235 324.696 31.076C325.254 29.2284 325.585 28.2698 325.69 28.2001H334.37L352.933 27.9386L357.952 28.2001L362.083 27.9386C364.175 27.9386 365.221 28.3569 365.221 29.1936C368.706 38.9194 373.36 52.9155 379.182 71.1818C385.003 89.4482 388.28 99.7144 389.012 101.98L389.744 104.595C389.988 105.536 390.337 106.529 390.79 107.575ZM339.024 79.0252L341.167 79.0775L353.665 79.0252C353.142 74.877 352.741 71.8267 352.462 69.8746L350.475 60.9331C348.383 51.6954 347.303 46.9893 347.233 46.815C347.163 46.6407 347.094 46.4839 347.024 46.3444C346.989 46.1701 346.954 46.0656 346.919 46.0307C346.884 45.961 346.832 45.8564 346.762 45.717C346.728 45.5775 346.675 45.4904 346.606 45.4555C346.571 45.3858 346.518 45.2987 346.449 45.1941C346.205 44.7758 345.699 44.4097 344.932 44.096C343.991 44.3052 341.185 54.7979 336.514 75.5741L335.939 79.0252H339.024ZM453.96 62.0312C453.541 71.8965 453.332 82.0406 453.332 92.4636V108.046H449.515L448.208 107.993L429.645 108.15C428.46 108.15 427.832 108.168 427.763 108.203C427.763 108.168 427.832 107.871 427.972 107.314V107L428.024 106.791C427.85 104.281 427.763 101.231 427.763 97.6402L427.972 39.2331L427.92 36.5141V33.8996L427.815 28.9844C427.815 28.6358 428.007 28.2698 428.39 27.8863H435.554L439.737 27.834C449.567 27.834 456.592 27.9735 460.81 28.2524C465.062 28.5312 468.113 28.6707 469.96 28.6707C470.971 34.6665 472.47 42.6145 474.457 52.5146L478.17 71.2341H480L486.693 37.037C486.797 36.5141 487.041 34.9977 487.425 32.4878C487.808 29.943 488.105 28.5312 488.314 28.2524H488.523L522.563 27.9386L524.602 27.9909H530.459C530.773 28.1303 530.947 28.7752 530.982 29.9256L531.505 49.691C531.923 66.0749 532.219 78.8335 532.394 87.9667C532.394 95.0083 532.289 101.614 532.08 107.784C531.975 108.203 531.278 108.447 529.988 108.516L527.635 108.621C525.753 108.691 524.358 108.726 523.452 108.726H520.733C517.352 108.76 512.367 108.778 505.778 108.778C504.558 107.697 503.948 103.026 503.948 94.7643L504.053 78.3455V74.11C504.053 70.3801 504.035 67.6262 504 65.8483L502.013 65.4823C500.863 69.7003 498.65 79.095 495.373 93.6662L494.902 95.7578C494.658 96.8385 494.24 98.7732 493.647 101.562C493.089 104.316 492.636 106.407 492.288 107.837C491.869 108.325 490.022 108.569 486.745 108.569H486.065L480.209 108.412L477.019 108.464H474.562L470.431 108.516H468.967C467.363 108.516 466.474 108.15 466.3 107.418L466.352 107.471L461.594 86.7118C461.454 86.1889 461.141 85.0559 460.653 83.313C460.165 81.5351 459.886 80.0536 459.816 78.8684L455.894 61.9266L453.96 62.0312ZM539.507 42.2659L539.245 28.5138C539.28 28.5138 539.402 28.5661 539.612 28.6707C566.105 28.2175 586.062 27.9735 599.483 27.9386C599.622 28.0083 599.727 28.1129 599.796 28.2524V42.9979C599.796 44.4272 599.762 45.595 599.692 46.5013C599.518 47.0591 598.489 47.3379 596.607 47.3379H596.241C587.805 47.3379 579.02 47.1985 569.887 46.9196C569.887 47.2334 569.835 47.7911 569.73 48.5929C569.66 49.3947 569.608 49.9698 569.573 50.3184L569.312 52.3054C569.138 53.6301 569.016 55.9308 568.946 59.2076L585.155 58.8416C587.944 58.7719 589.966 58.737 591.221 58.737H592.058C594.184 58.737 595.578 58.8067 596.241 58.9462C596.903 59.0507 597.234 59.3993 597.234 59.9919L597.182 60.4103V61.6652L597.443 75.1035L597.391 75.1558V75.1035C586.794 75.6264 578.323 75.8879 571.979 75.8879H569.521V88.5419L597.914 87.653C599.483 87.653 600.476 87.8796 600.895 88.3327C600.86 89.2391 600.842 90.5289 600.842 92.2021L601.208 106.425C601.208 107.296 600.825 107.802 600.058 107.941L582.698 107.784C579.282 107.784 572.484 107.906 562.305 108.15L553.73 108.36C547.664 108.569 543.167 108.673 540.239 108.673L540.082 108.569H540.134C539.786 108.22 539.455 107.889 539.141 107.575V105.745L539.455 49.8478L539.507 42.2659ZM581.652 0.329882L590.541 0.173014C592.668 0.173014 593.783 0.312452 593.888 0.591328C594.062 5.88997 594.184 11.851 594.254 18.4743C594.149 18.6834 594.097 18.8577 594.097 18.9972L593.731 18.9449L576.319 19.6769L574.959 18.1605C574.959 15.1975 575.064 11.5721 575.273 7.28436C575.482 2.96178 575.796 0.591328 576.214 0.173014C578.131 0.277593 579.944 0.329882 581.652 0.329882ZM574.959 18.2128V18.1605V18.2128ZM594.045 19.0494L594.777 19.1017C594.777 19.6943 594.533 19.9906 594.045 19.9906C593.835 19.9906 593.661 19.9209 593.522 19.7815L594.045 19.0494ZM564.24 3.93784L564.344 9.06219V10.6832C564.344 14.4828 564.362 17.2019 564.397 18.8403C564.048 19.2237 562.636 19.4155 560.161 19.4155L559.063 19.3632H556.396L546.618 19.7292C545.886 18.6486 545.468 18.0385 545.363 17.8991C545.363 6.95319 545.747 1.0445 546.514 0.173014C547.769 0.207874 550.418 0.242733 554.462 0.277593C558.54 0.277593 561.695 0.312452 563.926 0.382171C564.17 0.45189 564.292 0.887634 564.292 1.6894L564.24 2.26458V3.93784ZM640.952 42.2659L640.691 28.5138C640.726 28.5138 640.848 28.5661 641.057 28.6707C667.55 28.2175 687.507 27.9735 700.928 27.9386C701.068 28.0083 701.172 28.1129 701.242 28.2524V42.9979C701.242 44.4272 701.207 45.595 701.137 46.5013C700.963 47.0591 699.935 47.3379 698.052 47.3379H697.686C689.25 47.3379 680.466 47.1985 671.332 46.9196C671.332 47.2334 671.28 47.7911 671.176 48.5929C671.106 49.3947 671.054 49.9698 671.019 50.3184L670.757 52.3054C670.583 53.6301 670.461 55.9308 670.391 59.2076L686.601 58.8416C689.39 58.7719 691.411 58.737 692.666 58.737H693.503C695.629 58.737 697.024 58.8067 697.686 58.9462C698.349 59.0507 698.68 59.3993 698.68 59.9919L698.627 60.4103V61.6652L698.889 75.1035L698.837 75.1558V75.1035C688.239 75.6264 679.768 75.8879 673.424 75.8879H670.966V88.5419L699.359 87.653C700.928 87.653 701.922 87.8796 702.34 88.3327C702.305 89.2391 702.288 90.5289 702.288 92.2021L702.654 106.425C702.654 107.296 702.27 107.802 701.503 107.941L684.143 107.784C680.727 107.784 673.929 107.906 663.75 108.15L655.175 108.36C649.109 108.569 644.613 108.673 641.684 108.673L641.527 108.569H641.58C641.231 108.22 640.9 107.889 640.586 107.575V105.745L640.9 49.8478L640.952 42.2659ZM769.431 62.0312C769.013 71.8965 768.804 82.0406 768.804 92.4636V108.046H764.987L763.679 107.993L745.117 108.15C743.932 108.15 743.304 108.168 743.234 108.203C743.234 108.168 743.304 107.871 743.444 107.314V107L743.496 106.791C743.322 104.281 743.234 101.231 743.234 97.6402L743.444 39.2331L743.391 36.5141V33.8996L743.287 28.9844C743.287 28.6358 743.478 28.2698 743.862 27.8863H751.025L755.209 27.834C765.039 27.834 772.063 27.9735 776.281 28.2524C780.534 28.5312 783.584 28.6707 785.432 28.6707C786.443 34.6665 787.942 42.6145 789.929 52.5146L793.641 71.2341H795.471L802.164 37.037C802.269 36.5141 802.513 34.9977 802.896 32.4878C803.28 29.943 803.576 28.5312 803.785 28.2524H803.995L838.035 27.9386L840.074 27.9909H845.931C846.244 28.1303 846.419 28.7752 846.453 29.9256L846.976 49.691C847.395 66.0749 847.691 78.8335 847.865 87.9667C847.865 95.0083 847.761 101.614 847.551 107.784C847.447 108.203 846.75 108.447 845.46 108.516L843.107 108.621C841.224 108.691 839.83 108.726 838.924 108.726H836.205C832.823 108.76 827.838 108.778 821.25 108.778C820.03 107.697 819.42 103.026 819.42 94.7643L819.524 78.3455V74.11C819.524 70.3801 819.507 67.6262 819.472 65.8483L817.485 65.4823C816.335 69.7003 814.121 79.095 810.844 93.6662L810.374 95.7578C810.13 96.8385 809.711 98.7732 809.119 101.562C808.561 104.316 808.108 106.407 807.759 107.837C807.341 108.325 805.493 108.569 802.217 108.569H801.537L795.681 108.412L792.491 108.464H790.033L785.902 108.516H784.438C782.835 108.516 781.946 108.15 781.772 107.418L781.824 107.471L777.066 86.7118C776.926 86.1889 776.612 85.0559 776.124 83.313C775.636 81.5351 775.357 80.0536 775.288 78.8684L771.366 61.9266L769.431 62.0312ZM854.403 101.405C854.403 94.3286 854.595 89.4134 854.979 86.6595C854.979 71.4956 855.188 56.2097 855.606 40.8018C855.502 38.6056 855.449 36.3921 855.449 34.161V32.4355C855.31 31.3549 855.24 30.3962 855.24 29.5596C855.24 28.723 855.327 28.1826 855.502 27.9386C862.961 28.3918 869.498 28.6184 875.11 28.6184C880.722 28.6184 884.574 28.5138 886.666 28.3046C886.736 28.4092 886.788 28.7055 886.823 29.1936H886.457V48.1223L886.823 90.6857C886.823 90.9995 886.875 91.2609 886.98 91.4701V91.5747C887.084 91.7838 887.137 92.0104 887.137 92.2544L887.555 107.471C887.381 107.854 887.067 108.15 886.614 108.36H884.836L855.554 108.83C855.205 108.656 854.752 108.394 854.194 108.046L854.247 107.157L854.403 101.405ZM920.133 28.3569L936.918 28.2001C940.474 28.2001 943.698 28.2698 946.592 28.4092C954.365 28.6184 960.274 30.4485 964.318 33.8996C968.396 37.3507 970.435 42.2136 970.435 48.4883C970.435 52.8457 969.163 56.5757 966.618 59.6782C964.074 62.7458 960.361 65.4475 955.481 67.783C963.22 70.2232 967.908 76.1493 969.547 85.5614C969.93 87.6181 970.226 89.9711 970.435 92.6204C970.679 95.2698 970.871 97.0476 971.011 97.954L971.534 100.621C972.091 103.758 972.579 106.024 972.998 107.418L972.788 107.575C966.862 107.959 961.442 108.15 956.526 108.15C951.646 108.15 947.324 108.063 943.559 107.889H943.245C942.164 107.889 941.014 102.747 939.794 92.4636L939.532 90.2151C939.393 86.3806 938.713 83.801 937.493 82.4763C936.308 81.1517 934.234 80.4893 931.271 80.4893L930.591 80.5416H927.82V96.4376L927.872 98.1108V107.68C927.767 108.028 927.506 108.238 927.088 108.307C923.253 108.447 917.832 108.516 910.826 108.516C903.854 108.516 899.252 108.534 897.021 108.569L896.708 108.464L896.603 108.516C896.533 108.516 896.429 108.464 896.289 108.36L896.394 103.653L896.342 102.085L896.551 80.3848V76.5676L896.603 72.6459L896.655 59.103L896.708 57.3252L896.551 45.4555C896.551 45.4555 896.62 39.8954 896.76 28.7752C896.76 28.4964 897.753 28.3569 899.74 28.3569L903.087 28.4092H906.276L912.917 28.4615L920.133 28.3569ZM973.311 107.261L973.05 107.418V107.314C973.05 107.279 973.137 107.261 973.311 107.261ZM973.05 107.418V107.471C973.015 107.471 972.998 107.453 972.998 107.418H973.05ZM939.48 45.4032C937.389 44.4969 934.6 44.0437 931.114 44.0437H928.081C927.698 44.6015 927.506 47.5471 927.506 52.8806C927.506 58.1792 927.593 61.7349 927.767 63.5476C938.678 63.3036 944.134 59.5388 944.134 52.2531C944.134 49.1506 942.583 46.8673 939.48 45.4032ZM976.398 42.2659L976.137 28.5138C976.172 28.5138 976.294 28.5661 976.503 28.6707C1003 28.2175 1022.95 27.9735 1036.37 27.9386C1036.51 28.0083 1036.62 28.1129 1036.69 28.2524V42.9979C1036.69 44.4272 1036.65 45.595 1036.58 46.5013C1036.41 47.0591 1035.38 47.3379 1033.5 47.3379H1033.13C1024.7 47.3379 1015.91 47.1985 1006.78 46.9196C1006.78 47.2334 1006.73 47.7911 1006.62 48.5929C1006.55 49.3947 1006.5 49.9698 1006.46 50.3184L1006.2 52.3054C1006.03 53.6301 1005.91 55.9308 1005.84 59.2076L1022.05 58.8416C1024.84 58.7719 1026.86 58.737 1028.11 58.737H1028.95C1031.08 58.737 1032.47 58.8067 1033.13 58.9462C1033.79 59.0507 1034.13 59.3993 1034.13 59.9919L1034.07 60.4103V61.6652L1034.33 75.1035L1034.28 75.1558V75.1035C1023.69 75.6264 1015.21 75.8879 1008.87 75.8879H1006.41V88.5419L1034.81 87.653C1036.37 87.653 1037.37 87.8796 1037.79 88.3327C1037.75 89.2391 1037.73 90.5289 1037.73 92.2021L1038.1 106.425C1038.1 107.296 1037.72 107.802 1036.95 107.941L1019.59 107.784C1016.17 107.784 1009.38 107.906 999.197 108.15L990.621 108.36C984.556 108.569 980.059 108.673 977.131 108.673L976.974 108.569H977.026C976.677 108.22 976.346 107.889 976.032 107.575V105.745L976.346 49.8478L976.398 42.2659ZM1018.54 0.329882L1027.43 0.173014C1029.56 0.173014 1030.67 0.312452 1030.78 0.591328C1030.95 5.88997 1031.08 11.851 1031.15 18.4743C1031.04 18.6834 1030.99 18.8577 1030.99 18.9972L1030.62 18.9449L1013.21 19.6769L1011.85 18.1605C1011.85 15.1975 1011.96 11.5721 1012.16 7.28436C1012.37 2.96178 1012.69 0.591328 1013.11 0.173014C1015.02 0.277593 1016.84 0.329882 1018.54 0.329882ZM1011.85 18.2128V18.1605V18.2128ZM1030.94 19.0494L1031.67 19.1017C1031.67 19.6943 1031.42 19.9906 1030.94 19.9906C1030.73 19.9906 1030.55 19.9209 1030.41 19.7815L1030.94 19.0494ZM1001.13 3.93784L1001.24 9.06219V10.6832C1001.24 14.4828 1001.25 17.2019 1001.29 18.8403C1000.94 19.2237 999.528 19.4155 997.053 19.4155L995.955 19.3632H993.288L983.51 19.7292C982.778 18.6486 982.359 18.0385 982.255 17.8991C982.255 6.95319 982.638 1.0445 983.405 0.173014C984.66 0.207874 987.31 0.242733 991.353 0.277593C995.432 0.277593 998.587 0.312452 1000.82 0.382171C1001.06 0.45189 1001.18 0.887634 1001.18 1.6894L1001.13 2.26458V3.93784ZM1104.88 62.0312C1104.46 71.8965 1104.25 82.0406 1104.25 92.4636V108.046H1100.43L1099.13 107.993L1080.56 108.15C1079.38 108.15 1078.75 108.168 1078.68 108.203C1078.68 108.168 1078.75 107.871 1078.89 107.314V107L1078.94 106.791C1078.77 104.281 1078.68 101.231 1078.68 97.6402L1078.89 39.2331L1078.84 36.5141V33.8996L1078.73 28.9844C1078.73 28.6358 1078.92 28.2698 1079.31 27.8863H1086.47L1090.65 27.834C1100.49 27.834 1107.51 27.9735 1111.73 28.2524C1115.98 28.5312 1119.03 28.6707 1120.88 28.6707C1121.89 34.6665 1123.39 42.6145 1125.37 52.5146L1129.09 71.2341H1130.92L1137.61 37.037C1137.72 36.5141 1137.96 34.9977 1138.34 32.4878C1138.73 29.943 1139.02 28.5312 1139.23 28.2524H1139.44L1173.48 27.9386L1175.52 27.9909H1181.38C1181.69 28.1303 1181.86 28.7752 1181.9 29.9256L1182.42 49.691C1182.84 66.0749 1183.14 78.8335 1183.31 87.9667C1183.31 95.0083 1183.21 101.614 1183 107.784C1182.89 108.203 1182.2 108.447 1180.91 108.516L1178.55 108.621C1176.67 108.691 1175.28 108.726 1174.37 108.726H1171.65C1168.27 108.76 1163.28 108.778 1156.7 108.778C1155.48 107.697 1154.87 103.026 1154.87 94.7643L1154.97 78.3455V74.11C1154.97 70.3801 1154.95 67.6262 1154.92 65.8483L1152.93 65.4823C1151.78 69.7003 1149.57 79.095 1146.29 93.6662L1145.82 95.7578C1145.58 96.8385 1145.16 98.7732 1144.57 101.562C1144.01 104.316 1143.55 106.407 1143.21 107.837C1142.79 108.325 1140.94 108.569 1137.66 108.569H1136.98L1131.13 108.412L1127.94 108.464H1125.48L1121.35 108.516H1119.88C1118.28 108.516 1117.39 108.15 1117.22 107.418L1117.27 107.471L1112.51 86.7118C1112.37 86.1889 1112.06 85.0559 1111.57 83.313C1111.08 81.5351 1110.8 80.0536 1110.73 78.8684L1106.81 61.9266L1104.88 62.0312ZM1190.42 42.2659L1190.16 28.5138C1190.2 28.5138 1190.32 28.5661 1190.53 28.6707C1217.02 28.2175 1236.98 27.9735 1250.4 27.9386C1250.54 28.0083 1250.64 28.1129 1250.71 28.2524V42.9979C1250.71 44.4272 1250.68 45.595 1250.61 46.5013C1250.44 47.0591 1249.41 47.3379 1247.52 47.3379H1247.16C1238.72 47.3379 1229.94 47.1985 1220.8 46.9196C1220.8 47.2334 1220.75 47.7911 1220.65 48.5929C1220.58 49.3947 1220.53 49.9698 1220.49 50.3184L1220.23 52.3054C1220.06 53.6301 1219.93 55.9308 1219.86 59.2076L1236.07 58.8416C1238.86 58.7719 1240.88 58.737 1242.14 58.737H1242.98C1245.1 58.737 1246.5 58.8067 1247.16 58.9462C1247.82 59.0507 1248.15 59.3993 1248.15 59.9919L1248.1 60.4103V61.6652L1248.36 75.1035L1248.31 75.1558V75.1035C1237.71 75.6264 1229.24 75.8879 1222.9 75.8879H1220.44V88.5419L1248.83 87.653C1250.4 87.653 1251.39 87.8796 1251.81 88.3327C1251.78 89.2391 1251.76 90.5289 1251.76 92.2021L1252.13 106.425C1252.13 107.296 1251.74 107.802 1250.98 107.941L1233.62 107.784C1230.2 107.784 1223.4 107.906 1213.22 108.15L1204.65 108.36C1198.58 108.569 1194.08 108.673 1191.16 108.673L1191 108.569H1191.05C1190.7 108.22 1190.37 107.889 1190.06 107.575V105.745L1190.37 49.8478L1190.42 42.2659ZM1365.86 87.8621L1369.26 87.7575C1371.63 87.8621 1372.81 88.629 1372.81 90.0583C1372.81 90.0583 1372.8 90.25 1372.76 90.6335V91.1564C1372.73 91.4004 1372.71 91.8187 1372.71 92.4113V94.346L1372.76 95.0258L1372.81 100.098L1372.76 101.457V104.02L1372.71 105.85L1372.76 106.739V108.203C1372.62 108.691 1372.22 109.092 1371.56 109.405C1367.1 108.848 1362.62 108.569 1358.12 108.569C1353.62 108.569 1348.22 108.917 1341.91 109.614C1335.6 110.312 1330.91 110.66 1327.85 110.66C1320.49 110.66 1314.27 109.231 1309.18 106.373C1304.12 103.479 1299.84 99.3135 1296.31 93.8754C1295.86 93.8754 1295.63 93.9103 1295.63 93.98L1294.9 93.2479C1290.62 86.5549 1288.47 78.1189 1288.47 67.9399C1288.47 62.0138 1289.27 56.6454 1290.88 51.8348C1293.8 43.0502 1299.19 36.4095 1307.03 31.9126C1314.01 27.8689 1322.11 25.847 1331.35 25.847C1337.41 25.847 1342.92 26.8754 1347.87 28.9321C1352.86 30.9888 1356.99 33.8299 1360.26 37.4553C1367.06 44.9849 1370.46 54.4493 1370.46 65.8483C1370.46 69.4737 1369.8 73.256 1368.47 77.1951C1367.15 81.1342 1365.32 84.6899 1362.98 87.8621H1365.86ZM1328.58 91.9407L1329.2 91.8884H1330.15L1331.19 91.993C1333.39 91.993 1335.15 91.2086 1336.47 89.64C1337.8 88.0713 1338.63 86.5375 1338.98 85.0385C1339.92 81.3434 1340.46 77.0905 1340.6 72.2799V71.3387L1340.76 64.5411C1340.76 58.371 1340.13 53.8392 1338.88 50.9459C1337.62 48.0526 1335.93 46.1353 1333.81 45.1941C1332.55 44.6015 1330.9 44.3052 1328.84 44.3052C1326.82 44.3052 1324.97 45.1069 1323.3 46.7105C1321.62 48.2791 1320.25 50.911 1319.17 54.6061C1318.08 58.3013 1317.54 62.9899 1317.54 68.672C1317.54 74.3541 1317.77 78.206 1318.22 80.2279C1319.13 84.411 1320.37 87.409 1321.94 89.2216C1323.54 91.0343 1325.75 91.9407 1328.58 91.9407ZM1401.52 67.2602C1401.52 67.295 1401.51 67.3822 1401.47 67.5216V67.6785C1401.33 69.1426 1401.26 70.781 1401.26 72.5937C1401.26 74.4064 1401.4 76.3236 1401.68 78.3455C1401.99 80.3673 1402.48 82.3892 1403.14 84.411C1403.84 86.4329 1404.9 88.0713 1406.33 89.3262C1407.87 90.6509 1409.58 91.3132 1411.46 91.3132C1413.38 91.3132 1414.98 91.0518 1416.27 90.5289C1417.59 89.9711 1418.69 89.2739 1419.56 88.4373C1420.47 87.6007 1421.25 86.4677 1421.92 85.0385C1423.59 81.2388 1424.43 75.3476 1424.43 67.3647C1424.43 59.2425 1423.48 53.5604 1421.6 50.3184C1419.75 47.0416 1416.95 45.4032 1413.18 45.4032C1411.3 45.4032 1409.65 45.8564 1408.22 46.7628C1406.82 47.6691 1405.76 48.6103 1405.03 49.5864C1404.33 50.5624 1403.6 52.6366 1402.83 55.8088C1402.1 58.981 1401.73 61.9092 1401.73 64.5934L1401.52 67.2602ZM1371.46 67.6785L1371.56 66.5281C1371.98 62.1707 1372.54 58.3187 1373.23 54.9722C1373.93 51.5908 1375.06 48.436 1376.63 45.5078C1380.36 39.0588 1385.56 34.1785 1392.22 30.8668C1398.91 27.5203 1406.11 25.847 1413.81 25.847C1421.55 25.847 1428.57 27.3983 1434.88 30.5008C1438.65 32.3483 1441.59 34.6839 1443.72 37.5076C1447.8 42.597 1450.48 47.2856 1451.77 51.5734C1453.06 55.8611 1453.71 60.8111 1453.71 66.4235C1453.71 78.9032 1451.13 88.4199 1445.97 94.9735L1443.56 98.1631C1440.32 101.928 1435.74 104.839 1429.81 106.895C1423.89 108.917 1418.01 109.963 1412.19 110.033C1402.22 110.033 1394.05 107.941 1387.67 103.758C1376.86 96.7513 1371.46 84.7248 1371.46 67.6785ZM1519.96 30.5008L1519.91 35.3637C1519.91 40.1394 1519.84 44.3923 1519.7 48.1223C1515.62 48.4709 1510.04 48.6452 1502.97 48.6452L1490.89 48.6975V50.2138L1490.78 54.8153C1490.78 56.0354 1490.83 57.2206 1490.94 58.371C1499.65 57.6389 1506.1 57.2729 1510.29 57.2729C1514.5 57.2729 1517.08 57.5866 1518.03 58.2141V75.731C1518.03 76.8814 1517.8 77.6483 1517.35 78.0317C1516.89 78.4152 1516.2 78.6069 1515.25 78.6069H1514.57L1511.75 78.5023C1505.51 78.8509 1498.59 79.1124 1490.99 79.2867L1491.36 100.098L1491.31 101.876V106.791C1491.31 107.837 1490.99 108.394 1490.36 108.464L1460.45 108.726C1460.39 108.516 1460.12 108.046 1459.67 107.314C1459.53 105.013 1459.46 103.061 1459.46 101.457L1459.78 28.723C1459.78 28.2698 1462.15 28.0432 1466.89 28.0432L1468.19 28.0955H1471.75L1497.01 27.834L1514.94 28.0432H1516.72L1517.5 27.9909C1518.48 27.9909 1519.12 28.2175 1519.44 28.6707C1519.79 29.089 1519.96 29.699 1519.96 30.5008ZM1587.52 47.6517C1587.52 48.802 1587.4 49.3772 1587.15 49.3772C1587.15 49.3772 1580.84 49.3249 1568.23 49.2204C1568.16 52.6017 1568.12 57.8829 1568.12 65.064C1568.12 72.2451 1568.14 77.23 1568.17 80.0187L1568.38 107.732C1568.21 108.22 1567.86 108.482 1567.34 108.516L1556.3 108.36L1556.25 108.412L1552.8 108.36H1543.23C1540.65 108.36 1538.72 108.377 1537.43 108.412L1536.54 107.627C1536.5 107.593 1536.28 107.314 1535.86 106.791C1535.86 103.723 1535.98 96.9082 1536.22 86.3457L1536.8 58.5278L1536.69 57.2206C1536.45 53.7695 1536.21 51.7302 1535.96 51.1028C1535.75 50.4404 1535.32 50.0918 1534.66 50.057C1533.99 49.9873 1533.51 49.9524 1533.19 49.9524L1531.1 50.057L1518.13 49.8478C1517.68 48.9415 1517.45 46.9022 1517.45 43.73L1517.56 39.1285V37.7167C1517.52 32.1392 1517.47 29.1587 1517.4 28.7752C1517.47 28.7752 1517.61 28.8101 1517.82 28.8798L1584.38 28.3046C1585.74 28.3046 1586.6 28.4092 1586.94 28.6184C1587.29 28.7927 1587.47 29.1413 1587.47 29.6642V43.4685L1587.52 47.6517ZM1590.35 42.2659L1590.08 28.5138C1590.12 28.5138 1590.24 28.5661 1590.45 28.6707C1616.94 28.2175 1636.9 27.9735 1650.32 27.9386C1650.46 28.0083 1650.57 28.1129 1650.64 28.2524V42.9979C1650.64 44.4272 1650.6 45.595 1650.53 46.5013C1650.36 47.0591 1649.33 47.3379 1647.45 47.3379H1647.08C1638.64 47.3379 1629.86 47.1985 1620.73 46.9196C1620.73 47.2334 1620.67 47.7911 1620.57 48.5929C1620.5 49.3947 1620.45 49.9698 1620.41 50.3184L1620.15 52.3054C1619.98 53.6301 1619.85 55.9308 1619.78 59.2076L1635.99 58.8416C1638.78 58.7719 1640.8 58.737 1642.06 58.737H1642.9C1645.02 58.737 1646.42 58.8067 1647.08 58.9462C1647.74 59.0507 1648.07 59.3993 1648.07 59.9919L1648.02 60.4103V61.6652L1648.28 75.1035L1648.23 75.1558V75.1035C1637.63 75.6264 1629.16 75.8879 1622.82 75.8879H1620.36V88.5419L1648.75 87.653C1650.32 87.653 1651.31 87.8796 1651.73 88.3327C1651.7 89.2391 1651.68 90.5289 1651.68 92.2021L1652.05 106.425C1652.05 107.296 1651.66 107.802 1650.9 107.941L1633.54 107.784C1630.12 107.784 1623.32 107.906 1613.14 108.15L1604.57 108.36C1598.5 108.569 1594.01 108.673 1591.08 108.673L1590.92 108.569H1590.97C1590.62 108.22 1590.29 107.889 1589.98 107.575V105.745L1590.29 49.8478L1590.35 42.2659ZM1765.78 87.8621L1769.18 87.7575C1771.55 87.8621 1772.73 88.629 1772.73 90.0583C1772.73 90.0583 1772.72 90.25 1772.68 90.6335V91.1564C1772.65 91.4004 1772.63 91.8187 1772.63 92.4113V94.346L1772.68 95.0258L1772.73 100.098L1772.68 101.457V104.02L1772.63 105.85L1772.68 106.739V108.203C1772.54 108.691 1772.14 109.092 1771.48 109.405C1767.02 108.848 1762.54 108.569 1758.04 108.569C1753.54 108.569 1748.14 108.917 1741.83 109.614C1735.52 110.312 1730.83 110.66 1727.77 110.66C1720.41 110.66 1714.19 109.231 1709.1 106.373C1704.04 103.479 1699.76 99.3135 1696.24 93.8754C1695.78 93.8754 1695.56 93.9103 1695.56 93.98L1694.82 93.2479C1690.54 86.5549 1688.39 78.1189 1688.39 67.9399C1688.39 62.0138 1689.19 56.6454 1690.8 51.8348C1693.73 43.0502 1699.11 36.4095 1706.95 31.9126C1713.93 27.8689 1722.03 25.847 1731.27 25.847C1737.34 25.847 1742.84 26.8754 1747.79 28.9321C1752.78 30.9888 1756.91 33.8299 1760.19 37.4553C1766.98 44.9849 1770.38 54.4493 1770.38 65.8483C1770.38 69.4737 1769.72 73.256 1768.39 77.1951C1767.07 81.1342 1765.24 84.6899 1762.9 87.8621H1765.78ZM1728.5 91.9407L1729.13 91.8884H1730.07L1731.11 91.993C1733.31 91.993 1735.07 91.2086 1736.39 89.64C1737.72 88.0713 1738.56 86.5375 1738.9 85.0385C1739.84 81.3434 1740.39 77.0905 1740.52 72.2799V71.3387L1740.68 64.5411C1740.68 58.371 1740.05 53.8392 1738.8 50.9459C1737.54 48.0526 1735.85 46.1353 1733.73 45.1941C1732.47 44.6015 1730.82 44.3052 1728.76 44.3052C1726.74 44.3052 1724.89 45.1069 1723.22 46.7105C1721.54 48.2791 1720.17 50.911 1719.09 54.6061C1718.01 58.3013 1717.47 62.9899 1717.47 68.672C1717.47 74.3541 1717.69 78.206 1718.14 80.2279C1719.05 84.411 1720.29 87.409 1721.86 89.2216C1723.46 91.0343 1725.67 91.9407 1728.5 91.9407ZM1775.51 42.2659L1775.25 28.5138C1775.28 28.5138 1775.4 28.5661 1775.61 28.6707C1802.11 28.2175 1822.06 27.9735 1835.48 27.9386C1835.62 28.0083 1835.73 28.1129 1835.8 28.2524V42.9979C1835.8 44.4272 1835.76 45.595 1835.69 46.5013C1835.52 47.0591 1834.49 47.3379 1832.61 47.3379H1832.24C1823.81 47.3379 1815.02 47.1985 1805.89 46.9196C1805.89 47.2334 1805.84 47.7911 1805.73 48.5929C1805.66 49.3947 1805.61 49.9698 1805.57 50.3184L1805.31 52.3054C1805.14 53.6301 1805.02 55.9308 1804.95 59.2076L1821.16 58.8416C1823.95 58.7719 1825.97 58.737 1827.22 58.737H1828.06C1830.19 58.737 1831.58 58.8067 1832.24 58.9462C1832.9 59.0507 1833.24 59.3993 1833.24 59.9919L1833.18 60.4103V61.6652L1833.44 75.1035L1833.39 75.1558V75.1035C1822.8 75.6264 1814.32 75.8879 1807.98 75.8879H1805.52V88.5419L1833.92 87.653C1835.48 87.653 1836.48 87.8796 1836.9 88.3327C1836.86 89.2391 1836.84 90.5289 1836.84 92.2021L1837.21 106.425C1837.21 107.296 1836.83 107.802 1836.06 107.941L1818.7 107.784C1815.28 107.784 1808.49 107.906 1798.31 108.15L1789.73 108.36C1783.67 108.569 1779.17 108.673 1776.24 108.673L1776.08 108.569H1776.14C1775.79 108.22 1775.46 107.889 1775.14 107.575V105.745L1775.46 49.8478L1775.51 42.2659ZM1817.65 0.329882L1826.54 0.173014C1828.67 0.173014 1829.78 0.312452 1829.89 0.591328C1830.06 5.88997 1830.19 11.851 1830.26 18.4743C1830.15 18.6834 1830.1 18.8577 1830.1 18.9972L1829.73 18.9449L1812.32 19.6769L1810.96 18.1605C1810.96 15.1975 1811.06 11.5721 1811.27 7.28436C1811.48 2.96178 1811.8 0.591328 1812.22 0.173014C1814.13 0.277593 1815.95 0.329882 1817.65 0.329882ZM1810.96 18.2128V18.1605V18.2128ZM1830.05 19.0494L1830.78 19.1017C1830.78 19.6943 1830.53 19.9906 1830.05 19.9906C1829.84 19.9906 1829.66 19.9209 1829.52 19.7815L1830.05 19.0494ZM1800.24 3.93784L1800.35 9.06219V10.6832C1800.35 14.4828 1800.36 17.2019 1800.4 18.8403C1800.05 19.2237 1798.64 19.4155 1796.16 19.4155L1795.06 19.3632H1792.4L1782.62 19.7292C1781.89 18.6486 1781.47 18.0385 1781.36 17.8991C1781.36 6.95319 1781.75 1.0445 1782.51 0.173014C1783.77 0.207874 1786.42 0.242733 1790.46 0.277593C1794.54 0.277593 1797.7 0.312452 1799.93 0.382171C1800.17 0.45189 1800.29 0.887634 1800.29 1.6894L1800.24 2.26458V3.93784ZM1877.01 35.8866L1876.85 31.3897C1876.85 29.4724 1877.04 28.2872 1877.42 27.834C1878.37 27.7992 1880.14 27.7818 1882.76 27.7818C1885.41 27.7818 1887.69 27.7992 1889.61 27.834L1896.98 27.9386C1898.34 27.834 1900.31 27.7818 1902.89 27.7818C1905.47 27.7818 1907.11 28.1303 1907.8 28.8275C1907.63 37.3333 1907.54 47.4425 1907.54 59.1553L1909.37 59.4691C1909.9 58.1095 1910.84 56.0702 1912.2 53.3512C1913.59 50.6322 1914.39 49.0461 1914.6 48.5929L1915.18 47.3379C1915.32 47.0242 1915.94 45.6821 1917.06 43.3117C1918.21 40.9064 1919.38 38.2222 1920.56 35.2591C1921.75 32.2612 1923.02 29.9082 1924.38 28.2001C1926.82 28.1652 1929.78 28.1478 1933.27 28.1478C1936.79 28.1478 1940.89 28.2175 1945.56 28.3569C1950.23 28.4615 1953.73 28.5138 1956.07 28.5138C1946.13 46.4665 1939.07 58.8939 1934.89 65.7961L1936.09 67.7308C1937.52 69.5086 1940.64 74.5807 1945.45 82.9469C1950.26 91.3132 1953.75 97.2568 1955.91 100.778L1957.17 102.817C1958.7 105.362 1959.47 106.808 1959.47 107.157C1959.47 107.505 1959.36 107.819 1959.15 108.098H1958.84C1956.89 108.028 1955.3 107.993 1954.08 107.993C1952.9 107.993 1951.33 108.028 1949.37 108.098H1925.9C1920.53 98.0585 1914.95 87.1649 1909.16 75.4173C1908.88 78.206 1908.47 84.7945 1907.91 95.1826V95.8624L1908.01 107.732C1907.6 108.36 1905.77 108.673 1902.52 108.673L1901.43 108.621H1898.6L1883.8 108.726H1878.99C1878.02 108.726 1877.32 108.36 1876.9 107.627L1876.74 107.471V99.5226L1876.85 91.3132V61.7698L1877.01 35.8866ZM2043.65 107.575C2043.62 108.028 2042.66 108.255 2040.78 108.255H2035.97L2032.73 108.307H2029.54L2024.46 108.36C2019.41 108.36 2015.21 108.238 2011.86 107.993C2011.76 107.959 2011.64 107.749 2011.5 107.366L2011.23 106.268C2010.92 102.677 2010.1 99.2089 2008.78 95.8624L1986.4 96.0715C1986.26 96.6642 1985.8 98.4246 1985.04 101.353C1984.27 104.281 1983.7 106.495 1983.31 107.993C1982.96 108.342 1981.31 108.516 1978.34 108.516L1977.04 108.464H1974L1960.41 108.778H1958.84L1957.38 108.83H1953.72C1953.47 108.586 1953.21 108.272 1952.93 107.889C1956.42 95.8275 1961.14 80.8728 1967.1 63.0247L1968.31 59.3122H1968.25L1969.66 54.9722C1970.12 53.5778 1971.41 49.7084 1973.53 43.364C1975.7 37.0195 1977.04 32.9235 1977.56 31.076C1978.12 29.2284 1978.45 28.2698 1978.55 28.2001H1987.23L2005.8 27.9386L2010.82 28.2001L2014.95 27.9386C2017.04 27.9386 2018.08 28.3569 2018.08 29.1936C2021.57 38.9194 2026.22 52.9155 2032.05 71.1818C2037.87 89.4482 2041.14 99.7144 2041.88 101.98L2042.61 104.595C2042.85 105.536 2043.2 106.529 2043.65 107.575ZM1991.89 79.0252L1994.03 79.0775L2006.53 79.0252C2006.01 74.877 2005.6 71.8267 2005.33 69.8746L2003.34 60.9331C2001.25 51.6954 2000.17 46.9893 2000.1 46.815C2000.03 46.6407 1999.96 46.4839 1999.89 46.3444C1999.85 46.1701 1999.82 46.0656 1999.78 46.0307C1999.75 45.961 1999.7 45.8564 1999.63 45.717C1999.59 45.5775 1999.54 45.4904 1999.47 45.4555C1999.43 45.3858 1999.38 45.2987 1999.31 45.1941C1999.07 44.7758 1998.56 44.4097 1997.8 44.096C1996.86 44.3052 1994.05 54.7979 1989.38 75.5741L1988.8 79.0252H1991.89ZM2071.53 62.0312C2071.11 71.8965 2070.9 82.0406 2070.9 92.4636V108.046H2067.08L2065.77 107.993L2047.21 108.15C2046.03 108.15 2045.4 108.168 2045.33 108.203C2045.33 108.168 2045.4 107.871 2045.54 107.314V107L2045.59 106.791C2045.42 104.281 2045.33 101.231 2045.33 97.6402L2045.54 39.2331L2045.49 36.5141V33.8996L2045.38 28.9844C2045.38 28.6358 2045.57 28.2698 2045.96 27.8863H2053.12L2057.3 27.834C2067.13 27.834 2074.16 27.9735 2078.38 28.2524C2082.63 28.5312 2085.68 28.6707 2087.53 28.6707C2088.54 34.6665 2090.04 42.6145 2092.02 52.5146L2095.74 71.2341H2097.57L2104.26 37.037C2104.36 36.5141 2104.61 34.9977 2104.99 32.4878C2105.37 29.943 2105.67 28.5312 2105.88 28.2524H2106.09L2140.13 27.9386L2142.17 27.9909H2148.03C2148.34 28.1303 2148.51 28.7752 2148.55 29.9256L2149.07 49.691C2149.49 66.0749 2149.79 78.8335 2149.96 87.9667C2149.96 95.0083 2149.86 101.614 2149.65 107.784C2149.54 108.203 2148.84 108.447 2147.55 108.516L2145.2 108.621C2143.32 108.691 2141.93 108.726 2141.02 108.726H2138.3C2134.92 108.76 2129.93 108.778 2123.34 108.778C2122.12 107.697 2121.51 103.026 2121.51 94.7643L2121.62 78.3455V74.11C2121.62 70.3801 2121.6 67.6262 2121.57 65.8483L2119.58 65.4823C2118.43 69.7003 2116.22 79.095 2112.94 93.6662L2112.47 95.7578C2112.22 96.8385 2111.81 98.7732 2111.21 101.562C2110.66 104.316 2110.2 106.407 2109.85 107.837C2109.44 108.325 2107.59 108.569 2104.31 108.569H2103.63L2097.78 108.412L2094.59 108.464H2092.13L2088 108.516H2086.53C2084.93 108.516 2084.04 108.15 2083.87 107.418L2083.92 107.471L2079.16 86.7118C2079.02 86.1889 2078.71 85.0559 2078.22 83.313C2077.73 81.5351 2077.45 80.0536 2077.38 78.8684L2073.46 61.9266L2071.53 62.0312ZM2271.48 70.3975L2271.43 73.9009V93.2479L2271.54 102.451V105.065L2271.59 107.523C2271.38 107.802 2270.53 107.941 2269.03 107.941H2267.67L2251.25 108.15C2244.28 108.15 2239.08 108.133 2235.67 108.098C2235.14 107.54 2233.24 102.468 2229.97 92.8819L2219.98 66.3712L2218.1 66.6327L2218.04 71.9662V86.1366L2218.25 100.307V106.163C2218.25 107.732 2217.91 108.551 2217.21 108.621C2213.76 108.516 2210.46 108.464 2207.33 108.464H2205.7L2197.81 108.673H2196.76L2193 108.778L2192.84 108.673C2191.69 107.593 2191.12 106.808 2191.12 106.32V105.379L2191.17 104.333L2191.43 83.9404C2191.43 61.5606 2191.64 44.6363 2192.06 33.1675L2192.16 28.8275C2192.16 28.5138 2204.17 28.2349 2228.19 27.9909C2228.4 28.1303 2228.71 28.8973 2229.13 30.2916V30.1348L2229.44 31.1806C2232.02 38.5708 2235.16 47.0591 2238.86 56.6454C2242.55 66.1969 2244.43 71.0773 2244.5 71.2864L2246.28 71.1818L2246.49 28.5661C2246.49 28.2872 2249.04 28.1478 2254.12 28.1478L2267.25 28.4092H2271.12C2271.36 39.9477 2271.48 53.9438 2271.48 70.3975ZM2358.97 103.967C2358.97 104.002 2358.98 104.072 2359.02 104.176L2358.86 104.595H2358.91V104.699C2358.91 104.769 2358.9 104.821 2358.86 104.856C2357.22 106.111 2353.21 107.261 2346.84 108.307C2340.49 109.353 2336.12 109.876 2333.71 109.876C2331.34 109.876 2330.02 109.858 2329.74 109.824L2327.07 109.98C2324.28 110.155 2322.68 110.242 2322.26 110.242C2307.62 110.242 2296.46 106.564 2288.79 99.2089C2281.16 91.8535 2277.34 81.4131 2277.34 67.8876C2277.34 54.3273 2281.46 44.0437 2289.68 37.037C2297.95 30.0302 2309.12 26.5268 2323.2 26.5268C2325.78 26.5268 2328.95 26.7708 2332.72 27.2589C2336.52 27.7469 2339.85 28.4615 2342.7 29.4027C2346.19 30.832 2349.17 32.9061 2351.65 35.6251C2354.16 38.3093 2355.79 41.2898 2356.56 44.5666C2356.7 45.473 2356.86 46.9022 2357.03 48.8543C2357.24 50.7716 2357.42 52.1834 2357.55 53.0898C2357.35 53.6127 2356.6 53.8741 2355.31 53.8741L2328.74 53.4035C2328.6 53.3338 2328.43 52.8632 2328.22 51.9917V52.1486C2327.59 49.3249 2326.36 47.5994 2324.51 46.9719C2323.67 46.6582 2322.57 46.5013 2321.21 46.5013C2319.85 46.5013 2318.56 46.7279 2317.34 47.1811C2316.16 47.6342 2315.17 48.2617 2314.36 49.0635C2313.56 49.8653 2312.85 50.8065 2312.22 51.8871C2311.59 52.9329 2311.12 54.0658 2310.81 55.2859C2310.49 56.506 2310.22 57.7609 2309.97 59.0507C2309.73 60.3405 2309.57 61.6129 2309.5 62.8679C2309.47 64.1228 2309.41 65.3254 2309.34 66.4758C2309.31 67.6262 2309.31 68.5848 2309.34 69.3517C2309.38 70.0838 2309.4 70.5718 2309.4 70.8158V74.4238C2309.4 76.6897 2309.5 78.2758 2309.71 79.1821C2309.92 80.0536 2310.16 81.0297 2310.44 82.1103C2310.72 83.1561 2311.05 83.9579 2311.44 84.5156C2312.8 86.4329 2314.26 87.775 2315.83 88.5419C2317.43 89.2739 2319.91 89.64 2323.25 89.64C2326.63 89.64 2329.84 89.1345 2332.87 88.1236L2333.14 79.8619L2329.37 79.5481L2328.85 79.8096H2323.41L2322.78 79.8619L2321.48 78.5023C2321.41 77.9097 2321.37 76.9685 2321.37 75.6787V63.9659C2321.37 63.3733 2321.79 62.7807 2322.63 62.1881H2326.13C2329.16 62.1881 2332.56 62.223 2336.33 62.2927H2336.85C2340.26 62.3624 2342.86 62.3972 2344.64 62.3972H2347.78L2348.98 62.345C2355.18 62.345 2358.72 62.7458 2359.59 63.5476L2358.97 103.235V103.967ZM2389.66 28.3569L2406.45 28.2001C2410 28.2001 2413.23 28.2698 2416.12 28.4092C2423.89 28.6184 2429.8 30.4485 2433.85 33.8996C2437.93 37.3507 2439.96 42.2136 2439.96 48.4883C2439.96 52.8457 2438.69 56.5757 2436.15 59.6782C2433.6 62.7458 2429.89 65.4475 2425.01 67.783C2432.75 70.2232 2437.44 76.1493 2439.08 85.5614C2439.46 87.6181 2439.76 89.9711 2439.96 92.6204C2440.21 95.2698 2440.4 97.0476 2440.54 97.954L2441.06 100.621C2441.62 103.758 2442.11 106.024 2442.53 107.418L2442.32 107.575C2436.39 107.959 2430.97 108.15 2426.06 108.15C2421.18 108.15 2416.85 108.063 2413.09 107.889H2412.77C2411.69 107.889 2410.54 102.747 2409.32 92.4636L2409.06 90.2151C2408.92 86.3806 2408.24 83.801 2407.02 82.4763C2405.84 81.1517 2403.76 80.4893 2400.8 80.4893L2400.12 80.5416H2397.35V96.4376L2397.4 98.1108V107.68C2397.3 108.028 2397.04 108.238 2396.62 108.307C2392.78 108.447 2387.36 108.516 2380.36 108.516C2373.38 108.516 2368.78 108.534 2366.55 108.569L2366.24 108.464L2366.13 108.516C2366.06 108.516 2365.96 108.464 2365.82 108.36L2365.92 103.653L2365.87 102.085L2366.08 80.3848V76.5676L2366.13 72.6459L2366.18 59.103L2366.24 57.3252L2366.08 45.4555C2366.08 45.4555 2366.15 39.8954 2366.29 28.7752C2366.29 28.4964 2367.28 28.3569 2369.27 28.3569L2372.62 28.4092H2375.81L2382.45 28.4615L2389.66 28.3569ZM2442.84 107.261L2442.58 107.418V107.314C2442.58 107.279 2442.67 107.261 2442.84 107.261ZM2442.58 107.418V107.471C2442.54 107.471 2442.53 107.453 2442.53 107.418H2442.58ZM2409.01 45.4032C2406.92 44.4969 2404.13 44.0437 2400.64 44.0437H2397.61C2397.23 44.6015 2397.04 47.5471 2397.04 52.8806C2397.04 58.1792 2397.12 61.7349 2397.3 63.5476C2408.21 63.3036 2413.66 59.5388 2413.66 52.2531C2413.66 49.1506 2412.11 46.8673 2409.01 45.4032ZM2445.93 42.2659L2445.67 28.5138C2445.7 28.5138 2445.82 28.5661 2446.03 28.6707C2472.53 28.2175 2492.48 27.9735 2505.9 27.9386C2506.04 28.0083 2506.15 28.1129 2506.22 28.2524V42.9979C2506.22 44.4272 2506.18 45.595 2506.11 46.5013C2505.94 47.0591 2504.91 47.3379 2503.03 47.3379H2502.66C2494.23 47.3379 2485.44 47.1985 2476.31 46.9196C2476.31 47.2334 2476.26 47.7911 2476.15 48.5929C2476.08 49.3947 2476.03 49.9698 2475.99 50.3184L2475.73 52.3054C2475.56 53.6301 2475.44 55.9308 2475.37 59.2076L2491.58 58.8416C2494.37 58.7719 2496.39 58.737 2497.64 58.737H2498.48C2500.6 58.737 2502 58.8067 2502.66 58.9462C2503.32 59.0507 2503.66 59.3993 2503.66 59.9919L2503.6 60.4103V61.6652L2503.86 75.1035L2503.81 75.1558V75.1035C2493.21 75.6264 2484.74 75.8879 2478.4 75.8879H2475.94V88.5419L2504.33 87.653C2505.9 87.653 2506.9 87.8796 2507.32 88.3327C2507.28 89.2391 2507.26 90.5289 2507.26 92.2021L2507.63 106.425C2507.63 107.296 2507.25 107.802 2506.48 107.941L2489.12 107.784C2485.7 107.784 2478.9 107.906 2468.73 108.15L2460.15 108.36C2454.08 108.569 2449.59 108.673 2446.66 108.673L2446.5 108.569H2446.56C2446.21 108.22 2445.88 107.889 2445.56 107.575V105.745L2445.88 49.8478L2445.93 42.2659ZM2488.07 0.329882L2496.96 0.173014C2499.09 0.173014 2500.2 0.312452 2500.31 0.591328C2500.48 5.88997 2500.6 11.851 2500.67 18.4743C2500.57 18.6834 2500.52 18.8577 2500.52 18.9972L2500.15 18.9449L2482.74 19.6769L2481.38 18.1605C2481.38 15.1975 2481.48 11.5721 2481.69 7.28436C2481.9 2.96178 2482.22 0.591328 2482.63 0.173014C2484.55 0.277593 2486.36 0.329882 2488.07 0.329882ZM2481.38 18.2128V18.1605V18.2128ZM2500.47 19.0494L2501.2 19.1017C2501.2 19.6943 2500.95 19.9906 2500.47 19.9906C2500.26 19.9906 2500.08 19.9209 2499.94 19.7815L2500.47 19.0494ZM2470.66 3.93784L2470.77 9.06219V10.6832C2470.77 14.4828 2470.78 17.2019 2470.82 18.8403C2470.47 19.2237 2469.06 19.4155 2466.58 19.4155L2465.48 19.3632H2462.82L2453.04 19.7292C2452.31 18.6486 2451.89 18.0385 2451.78 17.8991C2451.78 6.95319 2452.17 1.0445 2452.93 0.173014C2454.19 0.207874 2456.84 0.242733 2460.88 0.277593C2464.96 0.277593 2468.12 0.312452 2470.35 0.382171C2470.59 0.45189 2470.71 0.887634 2470.71 1.6894L2470.66 2.26458V3.93784ZM2591.19 70.3975L2591.14 73.9009V93.2479L2591.24 102.451V105.065L2591.29 107.523C2591.09 107.802 2590.23 107.941 2588.73 107.941H2587.37L2570.95 108.15C2563.98 108.15 2558.79 108.133 2555.37 108.098C2554.85 107.54 2552.95 102.468 2549.67 92.8819L2539.68 66.3712L2537.8 66.6327L2537.75 71.9662V86.1366L2537.96 100.307V106.163C2537.96 107.732 2537.61 108.551 2536.91 108.621C2533.46 108.516 2530.17 108.464 2527.03 108.464H2525.41L2517.51 108.673H2516.47L2512.7 108.778L2512.55 108.673C2511.4 107.593 2510.82 106.808 2510.82 106.32V105.379L2510.87 104.333L2511.13 83.9404C2511.13 61.5606 2511.34 44.6363 2511.76 33.1675L2511.87 28.8275C2511.87 28.5138 2523.88 28.2349 2547.89 27.9909C2548.1 28.1303 2548.42 28.8973 2548.84 30.2916V30.1348L2549.15 31.1806C2551.73 38.5708 2554.87 47.0591 2558.56 56.6454C2562.26 66.1969 2564.14 71.0773 2564.21 71.2864L2565.99 71.1818L2566.2 28.5661C2566.2 28.2872 2568.74 28.1478 2573.83 28.1478L2586.95 28.4092H2590.82C2591.07 39.9477 2591.19 53.9438 2591.19 70.3975ZM2600.29 42.2659L2600.03 28.5138C2600.06 28.5138 2600.19 28.5661 2600.39 28.6707C2626.89 28.2175 2646.84 27.9735 2660.27 27.9386C2660.41 28.0083 2660.51 28.1129 2660.58 28.2524V42.9979C2660.58 44.4272 2660.54 45.595 2660.48 46.5013C2660.3 47.0591 2659.27 47.3379 2657.39 47.3379H2657.02C2648.59 47.3379 2639.8 47.1985 2630.67 46.9196C2630.67 47.2334 2630.62 47.7911 2630.51 48.5929C2630.44 49.3947 2630.39 49.9698 2630.36 50.3184L2630.09 52.3054C2629.92 53.6301 2629.8 55.9308 2629.73 59.2076L2645.94 58.8416C2648.73 58.7719 2650.75 58.737 2652 58.737H2652.84C2654.97 58.737 2656.36 58.8067 2657.02 58.9462C2657.69 59.0507 2658.02 59.3993 2658.02 59.9919L2657.97 60.4103V61.6652L2658.23 75.1035L2658.17 75.1558V75.1035C2647.58 75.6264 2639.11 75.8879 2632.76 75.8879H2630.3V88.5419L2658.7 87.653C2660.27 87.653 2661.26 87.8796 2661.68 88.3327C2661.64 89.2391 2661.63 90.5289 2661.63 92.2021L2661.99 106.425C2661.99 107.296 2661.61 107.802 2660.84 107.941L2643.48 107.784C2640.06 107.784 2633.27 107.906 2623.09 108.15L2614.51 108.36C2608.45 108.569 2603.95 108.673 2601.02 108.673L2600.87 108.569H2600.92C2600.57 108.22 2600.24 107.889 2599.92 107.575V105.745L2600.24 49.8478L2600.29 42.2659ZM2642.44 0.329882L2651.32 0.173014C2653.45 0.173014 2654.57 0.312452 2654.67 0.591328C2654.85 5.88997 2654.97 11.851 2655.04 18.4743C2654.93 18.6834 2654.88 18.8577 2654.88 18.9972L2654.51 18.9449L2637.1 19.6769L2635.74 18.1605C2635.74 15.1975 2635.85 11.5721 2636.06 7.28436C2636.27 2.96178 2636.58 0.591328 2637 0.173014C2638.91 0.277593 2640.73 0.329882 2642.44 0.329882ZM2635.74 18.2128V18.1605V18.2128ZM2654.83 19.0494L2655.56 19.1017C2655.56 19.6943 2655.32 19.9906 2654.83 19.9906C2654.62 19.9906 2654.44 19.9209 2654.3 19.7815L2654.83 19.0494ZM2625.02 3.93784L2625.13 9.06219V10.6832C2625.13 14.4828 2625.14 17.2019 2625.18 18.8403C2624.83 19.2237 2623.42 19.4155 2620.94 19.4155L2619.85 19.3632H2617.18L2607.4 19.7292C2606.67 18.6486 2606.25 18.0385 2606.15 17.8991C2606.15 6.95319 2606.53 1.0445 2607.3 0.173014C2608.55 0.207874 2611.2 0.242733 2615.24 0.277593C2619.32 0.277593 2622.48 0.312452 2624.71 0.382171C2624.95 0.45189 2625.08 0.887634 2625.08 1.6894L2625.02 2.26458V3.93784ZM2780.85 70.3975L2780.8 73.9009V93.2479L2780.9 102.451V105.065L2780.95 107.523C2780.74 107.802 2779.89 107.941 2778.39 107.941H2777.03L2760.61 108.15C2753.64 108.15 2748.45 108.133 2745.03 108.098C2744.51 107.54 2742.61 102.468 2739.33 92.8819L2729.34 66.3712L2727.46 66.6327L2727.41 71.9662V86.1366L2727.62 100.307V106.163C2727.62 107.732 2727.27 108.551 2726.57 108.621C2723.12 108.516 2719.83 108.464 2716.69 108.464H2715.07L2707.17 108.673H2706.13L2702.36 108.778L2702.21 108.673C2701.06 107.593 2700.48 106.808 2700.48 106.32V105.379L2700.53 104.333L2700.79 83.9404C2700.79 61.5606 2701 44.6363 2701.42 33.1675L2701.53 28.8275C2701.53 28.5138 2713.54 28.2349 2737.55 27.9909C2737.76 28.1303 2738.08 28.8973 2738.49 30.2916V30.1348L2738.81 31.1806C2741.39 38.5708 2744.53 47.0591 2748.22 56.6454C2751.92 66.1969 2753.8 71.0773 2753.87 71.2864L2755.65 71.1818L2755.85 28.5661C2755.85 28.2872 2758.4 28.1478 2763.49 28.1478L2776.61 28.4092H2780.48C2780.73 39.9477 2780.85 53.9438 2780.85 70.3975ZM2810.87 27.9386L2820.64 27.7818C2837.69 27.7818 2849.66 30.6054 2856.57 36.2526C2858.03 37.3333 2859.63 39.146 2861.38 41.6907C2866.43 49.0461 2868.96 57.1683 2868.96 66.0575C2868.96 81.9186 2863.5 93.6488 2852.59 101.248C2846.07 105.815 2838.58 108.133 2830.11 108.203L2829.9 108.412H2828.59L2814.68 108.255C2808.37 108.255 2800.48 108.412 2791 108.726C2790.33 107.471 2790 105.989 2790 104.281L2790.05 102.399V94.2414L2790.16 82.6332V63.4953C2790.09 59.103 2790.05 55.8262 2790.05 53.6649V45.0895L2790.11 43.8868V28.9321C2790.11 28.6532 2792.01 28.4267 2795.81 28.2524C2799.61 28.0432 2802.64 27.9386 2804.9 27.9386H2810.87ZM2833.04 46.0307C2831.05 44.6015 2828.85 43.7997 2826.45 43.6254C2825.61 43.5905 2824.46 43.5557 2823 43.5208C2821.57 43.486 2820.52 43.4511 2819.86 43.4162C2819.23 44.3575 2818.81 45.0546 2818.6 45.5078L2817.66 47.4425V50.3707C2817.66 56.4014 2817.8 64.576 2818.08 74.8944L2818.39 90.006C2818.6 91.0866 2819.3 91.7315 2820.49 91.9407C2824.08 91.871 2826.85 91.627 2828.8 91.2086C2835.67 88.7685 2839.1 80.4196 2839.1 66.1621C2839.1 55.5996 2837.08 48.8892 2833.04 46.0307ZM2899.92 67.2602C2899.92 67.295 2899.9 67.3822 2899.86 67.5216V67.6785C2899.72 69.1426 2899.65 70.781 2899.65 72.5937C2899.65 74.4064 2899.79 76.3236 2900.07 78.3455C2900.39 80.3673 2900.87 82.3892 2901.54 84.411C2902.23 86.4329 2903.3 88.0713 2904.73 89.3262C2906.26 90.6509 2907.97 91.3132 2909.85 91.3132C2911.77 91.3132 2913.37 91.0518 2914.66 90.5289C2915.99 89.9711 2917.08 89.2739 2917.96 88.4373C2918.86 87.6007 2919.65 86.4677 2920.31 85.0385C2921.98 81.2388 2922.82 75.3476 2922.82 67.3647C2922.82 59.2425 2921.88 53.5604 2920 50.3184C2918.15 47.0416 2915.34 45.4032 2911.58 45.4032C2909.69 45.4032 2908.04 45.8564 2906.61 46.7628C2905.21 47.6691 2904.15 48.6103 2903.42 49.5864C2902.72 50.5624 2901.99 52.6366 2901.22 55.8088C2900.49 58.981 2900.13 61.9092 2900.13 64.5934L2899.92 67.2602ZM2869.85 67.6785L2869.95 66.5281C2870.37 62.1707 2870.93 58.3187 2871.63 54.9722C2872.32 51.5908 2873.46 48.436 2875.03 45.5078C2878.76 39.0588 2883.95 34.1785 2890.61 30.8668C2897.3 27.5203 2904.5 25.847 2912.2 25.847C2919.94 25.847 2926.97 27.3983 2933.28 30.5008C2937.04 32.3483 2939.99 34.6839 2942.11 37.5076C2946.19 42.597 2948.88 47.2856 2950.17 51.5734C2951.46 55.8611 2952.1 60.8111 2952.1 66.4235C2952.1 78.9032 2949.52 88.4199 2944.36 94.9735L2941.96 98.1631C2938.71 101.928 2934.13 104.839 2928.2 106.895C2922.28 108.917 2916.4 109.963 2910.58 110.033C2900.61 110.033 2892.44 107.941 2886.06 103.758C2875.25 96.7513 2869.85 84.7248 2869.85 67.6785ZM3037.02 70.3975L3036.97 73.9009V93.2479L3037.07 102.451V105.065L3037.13 107.523C3036.92 107.802 3036.06 107.941 3034.56 107.941H3033.2L3016.78 108.15C3009.81 108.15 3004.62 108.133 3001.2 108.098C3000.68 107.54 2998.78 102.468 2995.5 92.8819L2985.52 66.3712L2983.63 66.6327L2983.58 71.9662V86.1366L2983.79 100.307V106.163C2983.79 107.732 2983.44 108.551 2982.74 108.621C2979.29 108.516 2976 108.464 2972.86 108.464H2971.24L2963.34 108.673H2962.3L2958.53 108.778L2958.38 108.673C2957.23 107.593 2956.65 106.808 2956.65 106.32V105.379L2956.7 104.333L2956.97 83.9404C2956.97 61.5606 2957.17 44.6363 2957.59 33.1675L2957.7 28.8275C2957.7 28.5138 2969.71 28.2349 2993.72 27.9909C2993.93 28.1303 2994.25 28.8973 2994.67 30.2916V30.1348L2994.98 31.1806C2997.56 38.5708 3000.7 47.0591 3004.39 56.6454C3008.09 66.1969 3009.97 71.0773 3010.04 71.2864L3011.82 71.1818L3012.03 28.5661C3012.03 28.2872 3014.57 28.1478 3019.66 28.1478L3032.79 28.4092H3036.65C3036.9 39.9477 3037.02 53.9438 3037.02 70.3975ZM3046.96 81.0122L3053.23 81.0645H3055.06L3055.74 81.0122L3064.58 81.1691C3066.15 81.2737 3067.02 82.2497 3067.19 84.0973C3067.26 84.8293 3067.35 85.5614 3067.45 86.2934C3067.7 88.0364 3068.95 88.9079 3071.22 88.9079C3073.52 88.9079 3074.98 87.8273 3075.61 85.666C3076.07 83.9927 3076.29 82.0057 3076.29 79.705V78.3455H3076.13L3075.93 70.9204C3075.79 66.0749 3075.72 58.9113 3075.72 49.4295C3075.72 39.9477 3075.79 33.0804 3075.93 28.8275L3075.87 28.7752C3075.87 28.4964 3075.98 28.2872 3076.19 28.1478L3076.87 28.0432L3079.43 28.0955H3098.57L3102.38 28.0432H3107.51C3107.79 28.0432 3108 28.2001 3108.14 28.5138C3108.07 29.2807 3108.03 30.4485 3108.03 32.0172V32.8538L3107.98 33.7427L3107.87 36.4095C3107.63 43.0328 3107.51 52.8632 3107.51 65.9006V71.6525C3107.51 76.5676 3107.49 80.6811 3107.46 83.9927C3107.42 87.2695 3106.6 90.5637 3105 93.8754C3103.43 97.1522 3101.44 99.7841 3099.04 101.771C3096.67 103.723 3093.91 105.344 3090.78 106.634C3085.23 108.9 3079.45 110.033 3073.42 110.033C3067.39 110.033 3062.35 109.423 3058.3 108.203C3054.71 107.296 3051.73 105.919 3049.36 104.072C3047.03 102.189 3045.21 100.412 3043.92 98.7383C3041.07 94.9735 3039.64 90.3372 3039.64 84.8293V83.4698L3039.58 82.8424C3039.58 81.4828 3039.79 80.8031 3040.21 80.8031L3046.96 81.0122ZM3116.35 42.2659L3116.09 28.5138C3116.12 28.5138 3116.24 28.5661 3116.45 28.6707C3142.95 28.2175 3162.9 27.9735 3176.32 27.9386C3176.46 28.0083 3176.57 28.1129 3176.64 28.2524V42.9979C3176.64 44.4272 3176.6 45.595 3176.53 46.5013C3176.36 47.0591 3175.33 47.3379 3173.45 47.3379H3173.08C3164.65 47.3379 3155.86 47.1985 3146.73 46.9196C3146.73 47.2334 3146.68 47.7911 3146.57 48.5929C3146.5 49.3947 3146.45 49.9698 3146.41 50.3184L3146.15 52.3054C3145.98 53.6301 3145.86 55.9308 3145.79 59.2076L3162 58.8416C3164.78 58.7719 3166.81 58.737 3168.06 58.737H3168.9C3171.02 58.737 3172.42 58.8067 3173.08 58.9462C3173.74 59.0507 3174.07 59.3993 3174.07 59.9919L3174.02 60.4103V61.6652L3174.28 75.1035L3174.23 75.1558V75.1035C3163.63 75.6264 3155.16 75.8879 3148.82 75.8879H3146.36V88.5419L3174.75 87.653C3176.32 87.653 3177.32 87.8796 3177.74 88.3327C3177.7 89.2391 3177.68 90.5289 3177.68 92.2021L3178.05 106.425C3178.05 107.296 3177.67 107.802 3176.9 107.941L3159.54 107.784C3156.12 107.784 3149.32 107.906 3139.15 108.15L3130.57 108.36C3124.5 108.569 3120.01 108.673 3117.08 108.673L3116.92 108.569H3116.97C3116.63 108.22 3116.3 107.889 3115.98 107.575V105.745L3116.3 49.8478L3116.35 42.2659ZM3158.49 0.329882L3167.38 0.173014C3169.51 0.173014 3170.62 0.312452 3170.73 0.591328C3170.9 5.88997 3171.02 11.851 3171.09 18.4743C3170.99 18.6834 3170.94 18.8577 3170.94 18.9972L3170.57 18.9449L3153.16 19.6769L3151.8 18.1605C3151.8 15.1975 3151.9 11.5721 3152.11 7.28436C3152.32 2.96178 3152.64 0.591328 3153.05 0.173014C3154.97 0.277593 3156.78 0.329882 3158.49 0.329882ZM3151.8 18.2128V18.1605V18.2128ZM3170.89 19.0494L3171.62 19.1017C3171.62 19.6943 3171.37 19.9906 3170.89 19.9906C3170.68 19.9906 3170.5 19.9209 3170.36 19.7815L3170.89 19.0494ZM3141.08 3.93784L3141.18 9.06219V10.6832C3141.18 14.4828 3141.2 17.2019 3141.24 18.8403C3140.89 19.2237 3139.48 19.4155 3137 19.4155L3135.9 19.3632H3133.24L3123.46 19.7292C3122.73 18.6486 3122.31 18.0385 3122.2 17.8991C3122.2 6.95319 3122.59 1.0445 3123.35 0.173014C3124.61 0.207874 3127.26 0.242733 3131.3 0.277593C3135.38 0.277593 3138.54 0.312452 3140.77 0.382171C3141.01 0.45189 3141.13 0.887634 3141.13 1.6894L3141.08 2.26458V3.93784ZM3258.31 89.1171L3258.26 95.3395C3258.26 97.954 3258.3 102.085 3258.37 107.732C3257.88 108.394 3254.01 108.726 3246.76 108.726C3239.51 108.726 3233.02 108.621 3227.31 108.412C3227.24 108.342 3226.91 107.906 3226.31 107.105V98.7383L3226.42 82.6855C3226.42 81.1168 3226.24 80.193 3225.9 79.9142C3225.55 79.6353 3224.48 79.4958 3222.71 79.4958H3221.97C3218.66 79.4958 3216.05 79.6527 3214.13 79.9664V87.2869L3214.03 107.523C3213.5 108.081 3209.13 108.36 3200.9 108.36H3198.39C3191.28 108.36 3186.1 108.255 3182.86 108.046C3182.2 107.837 3181.87 105.362 3181.87 100.621L3182.18 89.0648L3182.7 42.2136V39.7037C3182.74 39.1808 3182.76 37.3681 3182.76 34.2656C3182.76 31.1283 3182.95 29.1413 3183.33 28.3046H3183.59C3185.89 28.3744 3187.58 28.4092 3188.67 28.4092H3194.52L3200.85 28.3046H3202.84C3208.76 28.3046 3212.21 28.9844 3213.19 30.3439C3213.68 31.0411 3213.92 32.1043 3213.92 33.5336L3213.76 40.0697V42.5273L3213.45 52.8806C3213.45 53.6475 3213.5 54.6584 3213.61 55.9134H3216.85L3218.16 55.9657H3222.34C3223.87 55.9657 3225.44 55.8437 3227.05 55.5996V43.2071L3227.1 39.3377V35.7297L3227.05 34.8931V32.2263C3227.05 30.1696 3227.13 28.9147 3227.31 28.4615C3227.52 28.0083 3228.02 27.7818 3228.82 27.7818L3229.87 27.834H3233.27L3244.56 27.5203C3253.56 27.5203 3258.05 28.2349 3258.05 29.6642V33.3767L3258.11 34.6316L3258.05 37.3507V45.4555L3258.31 78.8161C3258.31 79.3738 3258.28 80.1059 3258.21 81.0122V83.5221C3258.21 84.6376 3258.25 86.1017 3258.31 87.9144V89.1171ZM3266.84 42.2659L3266.58 28.5138C3266.61 28.5138 3266.74 28.5661 3266.94 28.6707C3293.44 28.2175 3313.4 27.9735 3326.82 27.9386C3326.96 28.0083 3327.06 28.1129 3327.13 28.2524V42.9979C3327.13 44.4272 3327.09 45.595 3327.03 46.5013C3326.85 47.0591 3325.82 47.3379 3323.94 47.3379H3323.57C3315.14 47.3379 3306.35 47.1985 3297.22 46.9196C3297.22 47.2334 3297.17 47.7911 3297.06 48.5929C3296.99 49.3947 3296.94 49.9698 3296.91 50.3184L3296.65 52.3054C3296.47 53.6301 3296.35 55.9308 3296.28 59.2076L3312.49 58.8416C3315.28 58.7719 3317.3 58.737 3318.55 58.737H3319.39C3321.52 58.737 3322.91 58.8067 3323.57 58.9462C3324.24 59.0507 3324.57 59.3993 3324.57 59.9919L3324.52 60.4103V61.6652L3324.78 75.1035L3324.72 75.1558V75.1035C3314.13 75.6264 3305.66 75.8879 3299.31 75.8879H3296.85V88.5419L3325.25 87.653C3326.82 87.653 3327.81 87.8796 3328.23 88.3327C3328.19 89.2391 3328.18 90.5289 3328.18 92.2021L3328.54 106.425C3328.54 107.296 3328.16 107.802 3327.39 107.941L3310.03 107.784C3306.61 107.784 3299.82 107.906 3289.64 108.15L3281.06 108.36C3275 108.569 3270.5 108.673 3267.57 108.673L3267.42 108.569H3267.47C3267.12 108.22 3266.79 107.889 3266.47 107.575V105.745L3266.79 49.8478L3266.84 42.2659ZM3356.26 28.3569L3373.04 28.2001C3376.6 28.2001 3379.82 28.2698 3382.72 28.4092C3390.49 28.6184 3396.4 30.4485 3400.44 33.8996C3404.52 37.3507 3406.56 42.2136 3406.56 48.4883C3406.56 52.8457 3405.29 56.5757 3402.74 59.6782C3400.2 62.7458 3396.48 65.4475 3391.6 67.783C3399.34 70.2232 3404.03 76.1493 3405.67 85.5614C3406.05 87.6181 3406.35 89.9711 3406.56 92.6204C3406.8 95.2698 3407 97.0476 3407.13 97.954L3407.66 100.621C3408.22 103.758 3408.7 106.024 3409.12 107.418L3408.91 107.575C3402.99 107.959 3397.57 108.15 3392.65 108.15C3387.77 108.15 3383.45 108.063 3379.68 107.889H3379.37C3378.29 107.889 3377.14 102.747 3375.92 92.4636L3375.66 90.2151C3375.52 86.3806 3374.84 83.801 3373.62 82.4763C3372.43 81.1517 3370.36 80.4893 3367.39 80.4893L3366.71 80.5416H3363.94V96.4376L3364 98.1108V107.68C3363.89 108.028 3363.63 108.238 3363.21 108.307C3359.38 108.447 3353.96 108.516 3346.95 108.516C3339.98 108.516 3335.38 108.534 3333.15 108.569L3332.83 108.464L3332.73 108.516C3332.66 108.516 3332.55 108.464 3332.41 108.36L3332.52 103.653L3332.47 102.085L3332.67 80.3848V76.5676L3332.73 72.6459L3332.78 59.103L3332.83 57.3252L3332.67 45.4555C3332.67 45.4555 3332.74 39.8954 3332.88 28.7752C3332.88 28.4964 3333.88 28.3569 3335.86 28.3569L3339.21 28.4092H3342.4L3349.04 28.4615L3356.26 28.3569ZM3409.44 107.261L3409.17 107.418V107.314C3409.17 107.279 3409.26 107.261 3409.44 107.261ZM3409.17 107.418V107.471C3409.14 107.471 3409.12 107.453 3409.12 107.418H3409.17ZM3375.6 45.4032C3373.51 44.4969 3370.72 44.0437 3367.24 44.0437H3364.21C3363.82 44.6015 3363.63 47.5471 3363.63 52.8806C3363.63 58.1792 3363.72 61.7349 3363.89 63.5476C3374.8 63.3036 3380.26 59.5388 3380.26 52.2531C3380.26 49.1506 3378.71 46.8673 3375.6 45.4032ZM3412.52 42.2659L3412.26 28.5138C3412.3 28.5138 3412.42 28.5661 3412.63 28.6707C3439.12 28.2175 3459.08 27.9735 3472.5 27.9386C3472.64 28.0083 3472.74 28.1129 3472.81 28.2524V42.9979C3472.81 44.4272 3472.78 45.595 3472.71 46.5013C3472.53 47.0591 3471.5 47.3379 3469.62 47.3379H3469.26C3460.82 47.3379 3452.04 47.1985 3442.9 46.9196C3442.9 47.2334 3442.85 47.7911 3442.75 48.5929C3442.68 49.3947 3442.62 49.9698 3442.59 50.3184L3442.33 52.3054C3442.15 53.6301 3442.03 55.9308 3441.96 59.2076L3458.17 58.8416C3460.96 58.7719 3462.98 58.737 3464.24 58.737H3465.07C3467.2 58.737 3468.59 58.8067 3469.26 58.9462C3469.92 59.0507 3470.25 59.3993 3470.25 59.9919L3470.2 60.4103V61.6652L3470.46 75.1035L3470.41 75.1558V75.1035C3459.81 75.6264 3451.34 75.8879 3444.99 75.8879H3442.54V88.5419L3470.93 87.653C3472.5 87.653 3473.49 87.8796 3473.91 88.3327C3473.88 89.2391 3473.86 90.5289 3473.86 92.2021L3474.22 106.425C3474.22 107.296 3473.84 107.802 3473.07 107.941L3455.71 107.784C3452.3 107.784 3445.5 107.906 3435.32 108.15L3426.74 108.36C3420.68 108.569 3416.18 108.673 3413.25 108.673L3413.1 108.569H3413.15C3412.8 108.22 3412.47 107.889 3412.16 107.575V105.745L3412.47 49.8478L3412.52 42.2659ZM3454.67 0.329882L3463.56 0.173014C3465.68 0.173014 3466.8 0.312452 3466.9 0.591328C3467.08 5.88997 3467.2 11.851 3467.27 18.4743C3467.16 18.6834 3467.11 18.8577 3467.11 18.9972L3466.75 18.9449L3449.33 19.6769L3447.97 18.1605C3447.97 15.1975 3448.08 11.5721 3448.29 7.28436C3448.5 2.96178 3448.81 0.591328 3449.23 0.173014C3451.15 0.277593 3452.96 0.329882 3454.67 0.329882ZM3447.97 18.2128V18.1605V18.2128ZM3467.06 19.0494L3467.79 19.1017C3467.79 19.6943 3467.55 19.9906 3467.06 19.9906C3466.85 19.9906 3466.68 19.9209 3466.54 19.7815L3467.06 19.0494ZM3437.26 3.93784L3437.36 9.06219V10.6832C3437.36 14.4828 3437.38 17.2019 3437.41 18.8403C3437.06 19.2237 3435.65 19.4155 3433.18 19.4155L3432.08 19.3632H3429.41L3419.63 19.7292C3418.9 18.6486 3418.48 18.0385 3418.38 17.8991C3418.38 6.95319 3418.76 1.0445 3419.53 0.173014C3420.78 0.207874 3423.43 0.242733 3427.48 0.277593C3431.56 0.277593 3434.71 0.312452 3436.94 0.382171C3437.19 0.45189 3437.31 0.887634 3437.31 1.6894L3437.26 2.26458V3.93784ZM3506.8 93.7185C3506.8 97.4485 3506.85 100.098 3506.96 101.666V105.274L3507.01 105.954C3507.01 107.279 3506.96 107.941 3506.85 107.941C3506.78 107.941 3503.84 108.081 3498.02 108.36C3492.23 108.673 3486.46 108.83 3480.71 108.83L3479.51 106.948C3479.47 106.634 3479.45 106.216 3479.45 105.693L3479.61 100.255V97.4311C3479.61 89.7968 3479.86 85.7183 3480.34 85.1954C3488.5 85.2651 3494.67 85.3 3498.85 85.3H3501.26L3502.46 85.2477C3505.25 85.2477 3506.65 85.4045 3506.65 85.7183L3506.8 93.7185ZM3537.45 61.2469L3536.45 61.1946C3530.28 61.2643 3525.63 61.3515 3522.49 61.456L3521.24 60.358C3521.24 58.371 3521.32 55.9482 3521.5 53.0898L3521.76 39.8606L3521.71 38.2396L3522.02 32.5924V31.4943L3521.92 29.7687C3521.92 28.2349 3522.07 27.3111 3522.39 26.9974L3524.32 27.0497H3531.17L3534.94 26.9451C3539.01 26.9451 3541.37 27.1891 3541.99 27.6772L3541.94 27.8863L3542.67 59.0507C3542.67 59.9919 3542.47 60.602 3542.05 60.8809C3541.63 61.1249 3540.79 61.2469 3539.54 61.2469H3537.45ZM3569.97 27.5726C3570.49 37.7516 3570.75 45.8041 3570.75 51.7302C3570.75 57.6215 3570.72 60.6368 3570.65 60.7763L3564.22 60.9854C3561.15 60.9854 3557.79 61.0726 3554.13 61.2469L3550.73 61.4038C3549.99 60.4277 3549.63 59.2773 3549.63 57.9527V54.6061L3550.15 39.39C3550.22 38.3442 3550.26 36.7058 3550.26 34.4748V30.2916L3550.2 29.5073C3550.2 28.0432 3550.29 27.1891 3550.47 26.9451H3553.5C3564.58 26.9451 3570.13 26.9103 3570.13 26.8405V27.1543C3570.02 27.1543 3569.97 27.2937 3569.97 27.5726ZM3570.54 60.7763L3571.38 61.2992C3571.38 61.6826 3571.1 61.8744 3570.54 61.8744V60.8286H3570.49L3570.54 60.7763Z" fill="#B82424"/>
</svg>
